<?xml version="1.0" encoding="UTF-8"?>
<svg id="Layer_2" data-name="Layer 2" xmlns="http://www.w3.org/2000/svg" xmlns:xlink="http://www.w3.org/1999/xlink" viewBox="0 0 565.48 217.36">
  <defs>
    <style>
      .cls-1 {
        fill: none;
      }

      .cls-2 {
        clip-path: url(#clippath);
      }

      .cls-3 {
        fill: #737438;
      }
    </style>
    <clipPath id="clippath">
      <rect class="cls-1" width="565.48" height="217.36"/>
    </clipPath>
  </defs>
  <g id="Layer_11" data-name="Layer 11">
    <g class="cls-2">
      <path class="cls-3" d="M-21.91,134.34c-.06,2.21-.09,4.43-.08,6.65,0,1.11.02,2.22.05,3.35l.03.88.06,1.06.16,2.12c.8,10.26,1.89,20.13,4.51,30.11.54,1.98,1.14,4.03,2.05,5.94.43.96.88,1.94,1.35,2.91.47.98.95,1.95,1.53,2.85,1.13,1.83,2.24,3.69,3.49,5.43,1.29,1.68,2.59,3.36,3.85,5.01,5.22,6.2,11.19,9.72,16.96,11.69,1.48.43,2.94.8,4.37,1.12l1.07.23c.35.06.73.09,1.09.14l2.17.22c2.85.37,5.72.16,8.52.07,7.66-.74,23.85,2.79,37.4,2.31,4.33-.16,8.65-.51,12.98-.75.8-.04,1.6-.11,2.39-.06,5.33.31,10.66.96,15.98.91,9.69-.07,19.39-.38,29.05-.93,18.9-1.05,37.69.27,56.52.84,3.42.11,6.88-.78,10.33-.85,4.53-.1,9.07.16,13.6.26,10.15.23,20.36,1.07,30.41.51,8.44-.48,16.82-.74,25.27-.78,6.83-.04,13.64-.38,20.46-.67,2.98-.12,5.55.47,8.35,1.15,6.51,1.58,13.42,1.1,20.24.93,4.54-.12,9.11-.12,13.63.11,8.97.48,17.86.27,26.64-1.02,12.24-1.8,24.4-2.15,36.84-.64,4.93.59,10.48.16,15.39-.75,10.47-1.96,21.04-1.46,31.59-1.37,13.3.11,26.58.59,39.87.72,5.58.06,11.16.06,16.74.04l8.37-.06,4.19-.05c1.56-.09,3.19-.21,4.78-.33,1.28-.04,2.53-.35,3.8-.57,1.26-.26,2.55-.41,3.79-.78,2.48-.78,5.01-1.43,7.37-2.63,4.83-2.04,9.19-5.26,12.87-8.99.99-1.09,1.97-2.16,2.96-3.25,1-1.06,1.86-2.3,2.79-3.42l1.38-1.72c.43-.6.84-1.23,1.26-1.85.81-1.26,1.69-2.44,2.44-3.74,3.06-5.16,5.36-10.91,6.6-16.88,1.1-6.07,2.24-12.43,3.37-18.62.96-6.43,2.12-12.05,4.28-17.22.26-.63.85-1.22.83-1.75-.52-11.25,1.3-22.45-.14-33.81-.58-4.59-.36-9.91.07-14.68.75-8.2.27-16.06-.28-24.17-.46-6.61-.55-13.15.44-20.2.68-4.85,1.14-9.89,1.3-15.01l.05-1.93v-.96s-.04-1.15-.04-1.15c-.06-1.53-.15-3.06-.26-4.59-.07-1.53-.38-3.04-.65-4.54-.3-1.49-.54-3-.97-4.44-.53-1.72-.97-3.51-1.39-5.32-.45-1.8-1.06-3.56-1.64-5.28-2.91-7.91-6.97-15.11-11.82-21.37-4.86-6.27-10.51-11.62-16.74-16-5.97-4.2-12.82-6.74-19.76-7.52-1.73-.22-3.48-.22-5.22-.32l-1.3-.04h-1.11s-2.21.02-2.21.02c-2.95.04-5.89.02-8.84-.09-1.44-.06-3.08.22-4.32-.15-8.64-2.54-17.44-1.63-26.29-.85-2.64.22-5.4.02-8.08-.17-14.61-1.09-28.83-.04-42.85,3.04-5.91,1.3-12.03,2.35-18.16,2.84-8.39.68-16.58,2.65-25.19,2.06-1.44-.1-2.91-.02-4.33-.17-7.33-.77-14.71-1.38-21.96-2.42-8.68-1.23-17.27-.57-25.95-.28-8.27.26-16.6-.38-24.9-.36-9.76.02-19.51.36-29.27.51-3.53.05-7.25.48-10.57-.11-11.28-2.01-22.74-1.41-34.12-1.3-6.32.06-12.6,1.36-18.9,2.11-8.54,1.01-17.18,2.02-25.32-.89-5.57-1.99-11.51-2.22-17.46-2.61-15.29-.99-30.62-.7-45.94-.4-2.23.05-4.46.51-6.69.77-2.21.27-4.43.73-6.65.77-14.34.27-28.72.07-43,.83-2.09.11-4.16.21-6.22.27-2.1.05-4.19.09-6.26.12l-3.44.14c-.58.02-1.15,0-1.72.07l-1.71.21-3.45.37-3.45.62c-.79.14-1.59.37-2.39.65-.78.37-1.56.74-2.33,1.11-1.07.52-2.15.96-3.19,1.54l-3.06,1.85-1.53.94-1.44,1.09-2.88,2.2c-.93.77-1.81,1.64-2.71,2.47-.88.85-1.82,1.62-2.62,2.59-1.64,1.86-3.33,3.67-4.75,5.78-.74,1.04-1.48,2.09-2.09,3.23-.58,1.16-1.13,2.35-1.66,3.51C-6.23-10.58-8.7-4.44-11.88,1.96c-.55,1.25-1.09,2.53-1.6,3.84l-.75,1.99-.56,2.07c-.36,1.4-.71,2.82-1.02,4.26-.26,1.44-.39,2.93-.56,4.42-.35,3.17-.36,5.54-.38,8.25,0,2.64.09,5.33.27,8.05.28,4.25-.27,8.85-.75,13.15-.92,8.27-.79,16.62-.95,24.98-.14,7.35-.74,14.64-1.11,21.98-.45,8.78-1.31,17.48-1.95,26.22-.32,4.37-.59,8.75-.72,13.17h.04Z"/>
    </g>
  </g>
</svg>