<?xml version="1.0" encoding="UTF-8"?>
<svg id="Layer_2" data-name="Layer 2" xmlns="http://www.w3.org/2000/svg" xmlns:xlink="http://www.w3.org/1999/xlink" viewBox="0 0 565.48 242.36">
  <defs>
    <style>
      .cls-1 {
        fill: none;
      }

      .cls-2 {
        clip-path: url(#clippath);
      }

      .cls-3 {
        fill: #737438;
      }
    </style>
    <clipPath id="clippath">
      <rect class="cls-1" width="565.48" height="242.36"/>
    </clipPath>
  </defs>
  <g id="Layer_11" data-name="Layer 11">
    <g class="cls-2">
      <path class="cls-3" d="M-21.91,149.79c-.06,2.46-.09,4.94-.08,7.42,0,1.24.02,2.48.05,3.73l.03.98.06,1.18.16,2.37c.8,11.44,1.89,22.44,4.51,33.58.54,2.2,1.14,4.49,2.05,6.62.43,1.07.88,2.16,1.35,3.25.47,1.09.95,2.18,1.53,3.18,1.13,2.04,2.24,4.12,3.49,6.06,1.29,1.87,2.59,3.74,3.85,5.59,5.22,6.91,11.19,10.83,16.96,13.04,1.48.48,2.94.89,4.37,1.25l1.07.26c.35.07.73.1,1.09.15l2.17.25c2.85.41,5.72.18,8.52.08,7.66-.83,23.85,3.11,37.4,2.57,4.33-.18,8.65-.56,12.98-.84.8-.04,1.6-.12,2.39-.07,5.33.34,10.66,1.07,15.98,1.02,9.69-.08,19.39-.43,29.05-1.03,18.9-1.17,37.69.3,56.52.94,3.42.12,6.88-.87,10.33-.95,4.53-.11,9.07.18,13.6.29,10.15.26,20.36,1.2,30.41.56,8.44-.54,16.82-.83,25.27-.87,6.83-.04,13.64-.43,20.46-.74,2.98-.14,5.55.52,8.35,1.28,6.51,1.76,13.42,1.23,20.24,1.03,4.54-.14,9.11-.14,13.63.12,8.97.54,17.86.3,26.64-1.14,12.24-2.01,24.4-2.4,36.84-.72,4.93.66,10.48.18,15.39-.84,10.47-2.19,21.04-1.62,31.59-1.53,13.3.12,26.58.66,39.87.8,5.58.07,11.16.07,16.74.04l8.37-.07,4.19-.06c1.56-.1,3.19-.23,4.78-.37,1.28-.04,2.53-.39,3.8-.63,1.26-.29,2.55-.45,3.79-.87,2.48-.87,5.01-1.6,7.37-2.93,4.83-2.27,9.19-5.86,12.87-10.02.99-1.21,1.97-2.41,2.96-3.62,1-1.18,1.86-2.56,2.79-3.81l1.38-1.91c.43-.67.84-1.38,1.26-2.07.81-1.4,1.69-2.73,2.44-4.17,3.06-5.75,5.36-12.17,6.6-18.82,1.1-6.77,2.24-13.86,3.37-20.76.96-7.17,2.12-13.44,4.28-19.2.26-.7.85-1.36.83-1.95-.52-12.54,1.3-25.03-.14-37.69-.58-5.12-.36-11.05.07-16.37.75-9.14.27-17.91-.28-26.96-.46-7.37-.55-14.66.44-22.52.68-5.41,1.14-11.03,1.3-16.74l.05-2.15v-1.07s-.04-1.28-.04-1.28c-.06-1.71-.15-3.41-.26-5.12-.07-1.71-.38-3.39-.65-5.07-.3-1.67-.54-3.35-.97-4.96-.53-1.91-.97-3.91-1.39-5.93-.45-2.01-1.06-3.96-1.64-5.89-2.91-8.82-6.97-16.85-11.82-23.83-4.86-6.99-10.51-12.95-16.74-17.84-5.97-4.68-12.82-7.52-19.76-8.38-1.73-.25-3.48-.25-5.22-.36l-1.3-.04h-1.11s-2.21.03-2.21.03c-2.95.04-5.89.03-8.84-.1-1.44-.07-3.08.25-4.32-.17-8.64-2.84-17.44-1.82-26.29-.95-2.64.25-5.4.03-8.08-.19-14.61-1.21-28.83-.04-42.85,3.39-5.91,1.45-12.03,2.62-18.16,3.17-8.39.76-16.58,2.96-25.19,2.3-1.44-.11-2.91-.03-4.33-.19-7.33-.85-14.71-1.54-21.96-2.7-8.68-1.38-17.27-.63-25.95-.32-8.27.29-16.6-.43-24.9-.4-9.76.03-19.51.4-29.27.56-3.53.06-7.25.54-10.57-.12-11.28-2.24-22.74-1.57-34.12-1.45-6.32.07-12.6,1.51-18.9,2.35-8.54,1.13-17.18,2.26-25.32-.99-5.57-2.22-11.51-2.48-17.46-2.9-15.29-1.1-30.62-.78-45.94-.44-2.23.06-4.46.56-6.69.85-2.21.3-4.43.81-6.65.85-14.34.3-28.72.08-43,.92-2.09.12-4.16.23-6.22.3-2.1.06-4.19.1-6.26.14l-3.44.15c-.58.03-1.15,0-1.72.08l-1.71.23-3.45.41-3.45.69c-.79.15-1.59.41-2.39.73-.78.41-1.56.83-2.33,1.24-1.07.58-2.15,1.07-3.19,1.72l-3.06,2.07-1.53,1.05-1.44,1.21-2.88,2.45c-.93.85-1.81,1.83-2.71,2.75-.88.95-1.82,1.8-2.62,2.89-1.64,2.08-3.33,4.09-4.75,6.44-.74,1.16-1.48,2.33-2.09,3.61-.58,1.29-1.13,2.62-1.66,3.91C-6.23-11.8-8.7-4.95-11.88,2.18c-.55,1.39-1.09,2.82-1.6,4.28l-.75,2.22-.56,2.31c-.36,1.56-.71,3.14-1.02,4.75-.26,1.61-.39,3.26-.56,4.93-.35,3.54-.36,6.18-.38,9.2,0,2.95.09,5.95.27,8.98.28,4.74-.27,9.87-.75,14.66-.92,9.22-.79,18.53-.95,27.85-.14,8.19-.74,16.33-1.11,24.5-.45,9.79-1.31,19.49-1.95,29.24-.32,4.87-.59,9.76-.72,14.69h.04Z"/>
    </g>
  </g>
</svg>