<?xml version="1.0" encoding="UTF-8"?>
<svg id="Layer_11" data-name="Layer 11" xmlns="http://www.w3.org/2000/svg" viewBox="0 0 212.28 150.47">
  <defs>
    <style>
      .cls-1 {
        fill: #737438;
      }
    </style>
  </defs>
  <path class="cls-1" d="M212.13,62.5c-.21-5.86-.63-11.72-1.22-17.58-.48-4.66-1.2-9.27-1.75-13.95-.11-1.1-.34-2.26-.57-3.42-.3-1.16-.58-2.31-1.01-3.37-1-2.66-2.2-5.35-3.78-7.78-1.57-2.44-3.47-4.69-5.7-6.62-3.19-2.8-7.17-4.59-11.19-5.64-2.04-.52-4.09-.95-6.14-1.3-3.06-.53-6.17-.91-9.1-.74-1.26.07-2.41.15-3.72.08-3.02-.16-6.03-.26-9-.31-1.85-.03-3.67-.09-5.48-.2-1.82-.11-3.68-.24-5.53-.37-4.41-.32-8.9-.33-13.36-.44-1.99-.04-3.99-.07-5.98-.14-1.52-.06-3.03-.29-4.53-.31-8.29-.1-16.55.05-24.87-.19-4.25-.13-8.52-.17-12.78-.13-2.34,0-4.69.2-7.03.3-.35.02-.7,0-1.05,0-1.9,0-3.81-.03-5.71,0-5.96.08-8.95,1.29-10.11,2.75-.22,0-.44.02-.66.03-.18,0-.38.02-.56.02-.05-.04-.09-.08-.13-.11.14-.03.29-.06.44-.09.32-.07.44-.2.33-.28-.29-.2-.8-.36-1.47-.49-.59-.47-1.58-.83-3.44-1.1-4.07-.59-7.81-1.36-12.79-1-2.56.2-5.28.33-7.63.85-2.95.64-5.85,1.26-8.96,1.76-.86.16-1.72.32-2.57.51-.86.23-1.7.43-2.55.71-1.69.54-3.4,1.26-5,2.15-3.19,1.83-5.95,4.34-8.08,7.24-1.8,2.41-3.1,5.07-4.17,7.74-1.23,3.05-2.12,6.17-2.54,9.3-.21,1.63-.38,3.36-.68,4.93-.76,4.03-.92,7.88-.73,11.57.12,2.44-.06,4.81-.42,7.25-.13.87-.25,1.77-.31,2.67-.24,3.55-.4,7.11-.53,10.67-.02.64-.07,1.31-.04,1.92.19,3.61.13,7.19.08,10.87-.09,6.29.16,12.64.53,18.96.06.98.04,1.96.06,2.94.03.99.03,1.98.1,2.97.29,3.38.67,6.77,1.21,10.15.55,3.37,1.25,6.74,2.32,10.06.19.65.42,1.29.66,1.92l.36.95c.14.31.28.62.42.93.14.31.29.61.43.92.16.3.33.59.51.88.17.29.34.58.53.85.2.27.4.53.6.79.57.76,1.21,1.48,1.79,2.24.63.72,1.23,1.48,1.9,2.19,1.31,1.43,2.73,2.81,4.3,4,2.31,1.75,4.86,3.23,7.6,4.18,4.93,1.69,10.1,2.5,15.14,2.46,1.48-.01,3.12.16,4.68.23,4.31.19,8.6.27,12.85.38,3.59.11,7.28.21,10.9.4,3.81.22,7.58.49,11.4.35,3.19-.12,6.44-.17,9.66-.26.63-.02,1.27.01,1.9,0,3.78-.06,7.38.39,11.07.55,2.69.11,5.38.34,7.98.59,6.17.62,12.44.76,18.86.38,1.18-.07,2.39-.13,3.56-.12,3.9.05,7.78.11,11.56-.56.54-.1,1.26-.07,1.9-.11,2.59-.15,5.18-.24,7.77-.35,2.59-.11,5.14-.23,7.72-.43,5.38-.43,10.86-.43,16.4-.76,1.2-.07,2.43-.25,3.6-.31,3.93-.25,7.99-1.24,11.39-3.08,2.46-1.32,4.69-2.65,6.77-4.29,2.56-1.99,4.63-4.5,6.02-7.41.38-.86.84-1.73,1.19-2.63.19-.45.39-.89.59-1.31.18-.43.36-.86.55-1.26,1.85-4.02,2.33-8.33,3.07-12.49.04-.2-.07-.44-.1-.68-.12-.92-.19-1.88-.23-2.86.01-.08.03-.16.04-.24.27-1.64.45-3.48.6-5.22.2-2.36.25-4.77.45-7.04,0-.09.01-.18.02-.28.43-3.28.64-6.6,1-9.86.42-3.74.45-7.77.51-11.67.09-4.92.07-9.85-.1-14.77ZM85.5,51.95c0-.15.02-.29.03-.43.06.11.11.23.18.33.05.08.17.11.25.09.33-.1.59-.29.81-.49.13-.1.24-.2.34-.31.12-.1.23-.2.33-.3.24-.18.46-.42.59-.64.19-.41.45-.93,1.03-1.05.32-.07.65-.18,1-.21.27-.02.55-.05.83,0,.16.03.33.04.49.1l.24.08c.09.04.2.1.3.16.34.21.6.52.92.76.81.58,1.74.91,2.62,1.34.61.3,1.23.54,1.75.99.07.06.19.12.26.12.55-.02.96.44,1.42.68.69.35,1.34.82,2.02,1.19.57.31,1.17.55,1.75.85l2.7,1.46c1.07.56,2.15,1.1,3.21,1.68.73.4,1.44.84,2.15,1.29.3.19.53.47.82.69,1.02.74,2.14,1.32,3.28,1.86.59.27,1.16.59,1.73.91.17.09.29.26.44.4.17.15.32.33.51.44.69.38,1.38.76,2.13.92.16.03.34.11.49.2l2.47,1.34c.11.06.25.1.32.17.47.5,1.12.86,1.7,1.18,1.66.9,3.22,1.92,4.78,2.96.48.32.96.63,1.53.73.23.04.49.13.72.25.3.16.64.32.9.48l.38.23.35.28c.44.4.8.91,1.02,1.48.27.69.22,1.51.04,2.23-.13.43-.31.86-.58,1.21-.11.19-.28.33-.42.5l-.41.38-.46.33c-.37.22-.75.42-1.17.55-.25.08-.51.27-.74.43l-1.67,1.2c-.11.08-.22.14-.34.2l-2.04.99c-.23.12-.45.26-.68.4-.13.08-.26.16-.4.23-.47.23-.94.43-1.4.67-.46.25-.89.57-1.35.79-1.59.77-3.1,1.67-4.61,2.58l-.69.39-1.68,1.02c-.42.26-.83.57-1.27.79-1.1.56-2.18,1.15-3.12,1.93-.36.3-.73.54-1.18.73-.62.27-1.21.63-1.81.95-.48.26-.94.6-1.42.76-1.06.36-1.98.99-2.94,1.54-.24.14-.5.25-.75.38l-1.98,1.11c-1.11.63-2.13,1.43-3.35,1.87-.42.15-.84.4-1.23.64-.53.33-1.02.76-1.56,1.02-1.09.52-2,1.26-2.96,1.91-.16.11-.31.21-.44.28-.14.07-.27.17-.41.21-.28.12-.59.19-.89.23-.61.07-1.24-.03-1.82-.25-.58-.22-1.07-.64-1.4-1.14-.1-.15-.19-.32-.3-.47-.08-.17-.19-.31-.29-.45-.23-.33-.39-.72-.42-1.14,0-.1-.02-.2-.03-.31v-.36s0-.72,0-.72c0-.58-.04-1.17.02-1.72.12-1.04,0-2.01-.11-3.02-.07-.63-.16-1.29,0-1.95.05-.21.05-.46.06-.69l.14-2.67c.03-.71.07-1.41.07-2.12,0-.78-.14-1.59-.06-2.34.14-1.39.02-2.77.07-4.15l.05-1.49.05-1.65.05-2.13v-2.35s.02-1.49.02-1.49v-1.64c-.01-.58.01-1.15-.02-1.72-.05-.77-.18-1.53-.21-2.3-.04-1.1-.03-2.21-.03-3.31,0-.18.08-.35.09-.53.05-.89.11-1.77.11-2.66,0-.53-.14-1.06-.21-1.59.03-1.16-.09-2.27-.32-3.34-.08-.37-.21-.62-.37-.76v-.15Z"/>
</svg>