<?xml version="1.0" encoding="UTF-8"?>
<svg id="Layer_2" data-name="Layer 2" xmlns="http://www.w3.org/2000/svg" viewBox="0 0 39.15 62.01">
  <defs>
    <style>
      .cls-1 {
        fill: #747539;
      }
    </style>
  </defs>
  <g id="Layer_1-2" data-name="Layer 1">
    <path class="cls-1" d="M38.72,31.3c-.31-.2-.69-.23-1.06-.22-.4.01-.77.06-1.15.16-.32.08-.62.11-.73-.27-.06-.24,0-.48.09-.71.37-1.02.94-1.96,1.44-2.92.38-.73.73-1.49.9-2.29.12-.53.48-1.45.05-1.91-.23-.24-.61-.27-.94-.25-.32.02-.64.07-.96.03-1.1-.12-.84-.99-.75-1.81.09-.82.12-1.65.08-2.48-.02-.44-.1-.94-.47-1.16-.23-.14-.52-.12-.79-.14-.27-.01-.57-.08-.72-.3-.16-.24-.09-.55-.02-.82.13-.49.26-.99.39-1.48.1-.37.2-.76.16-1.14-.05-.38-.27-.77-.64-.89-.54-.18-2.33.98-2.39-.08-.03-.49.14-1,.08-1.51-.06-.52-.19-1.03-.4-1.5-.2-.46-.51-.92-.99-1.04-.3-.07-.64,0-.93-.09-.27-.09-.48-.34-.53-.63-.06-.35.19-.62.24-.95.07-.41.04-.9-.15-1.28-.2-.41-.66-.72-1.1-.61-.32.08-.61.35-.92.26-.34-.11-.4-.58-.3-.93.15-.53.26-1.05.41-1.58.24-.81.46-2.08-.45-2.57-.34-.18-.75-.2-1.12-.12-.57.12-1.08.45-1.54.81-.64.51-1.3,1-1.91,1.56-.36.33-.67.78-1.05,1.07-.34.25-.74.06-1.1-.08-.26-.1-.54-.2-.81-.14-.49.11-.74.66-.92,1.14-.12.31-.47,1.82-.81,1.84-.23.01-.59-.5-.81-.62-.31-.18-.71-.25-1.03-.09-.31.16-.5.49-.66.81-.33.68-.6,1.4-.81,2.13-.15.53-.38,1.02-.95.66-.36-.23-.64-.69-1.1-.72-.29-.02-.57.15-.76.39-.19.23-.3.51-.41.8-.24.62-.48,1.25-.58,1.91-.08.52-.09,1.07-.33,1.53-.67,1.27-2.26-.19-3.19.59-.37.31-.57.79-.62,1.28-.05.49.03.98.14,1.45.09.39.21.78.24,1.18.06.71-.14,1.43-.93,1.36-.32-.03-.65-.1-.97-.08-.33.02-.67.17-.81.48-.14.29-.06.63.02.94.11.44.95,2.41.04,2.47-.13,0-.26-.04-.4-.05-.48-.04-.9.41-.99.89-.09.49.07.99.28,1.44.21.45,1.41,2.27.71,2.69-.65.39-1.4-.79-2.12-.57-.31.1-.55.37-.69.68-.13.31-.17.66-.19.99-.07,1.4.18,2.81.71,4.09.27.65.6,1.27,1.01,1.85.2.29.42.56.65.82.18.2.59.44.48.77-.14.41-.74.32-1.03.47-.23.13-.35.42-.35.69,0,.28.12.53.25.77.59,1.1,1.48,1.65,2.36,2.44.84.75,1.59,1.63,2.19,2.6,1.19,1.9-1.11.94-1.67,1.86-.16.25-.1.6.07.85.16.25.42.41.66.57,1.63,1.03,3.4,1.82,5.2,2.49,1.78.66,3.68.92,5.43,1.67.84.36,1.83.84,2.49,1.49.61.61.88,1.38.99,2.23.28,2.15.19,4.24.18,6.38,0,.4.06.63.41.83.32.18.68.29,1.04.34.49.06.99.03,1.48-.03.3-.03.61-.08.86-.25.64-.45.3-1.53.04-2.1-.29-.64-.41-1.31-.5-2-.2-1.46-.8-2.99-.23-4.41.31-.75,1.39-1.32,2.04-1.75.89-.58,1.65-1.06,2.63-1.45.97-.38,1.97-.52,2.94-.84.48-.16.97-.36,1.3-.75.38-.46.47-1.34-.25-1.53-.18-.05-.36-.03-.54-.04-.18-.01-.38-.07-.48-.21-.29-.4.67-.96.94-1.13.65-.43,1.33-.78,1.98-1.22.54-.36,1.34-.86,1.63-1.46.13-.26.14-.6-.03-.83-.14-.18-.36-.26-.57-.34-.21-.08-.43-.17-.55-.36-.26-.39.44-1.15.68-1.43.47-.53,1.05-.96,1.52-1.5.83-.94,1.37-2.1,1.89-3.24.14-.31.29-.62.43-.94.24-.52.48-1.03.72-1.54.23-.48.2-1.02-.29-1.33ZM30.62,29.64c-.86,1.55-2.03,2.93-3.28,4.19-.48.48-.85.85-1.11,1.09-.26.24-.4.36-.4.36-1.48,1.31-2.66,2.21-3.51,2.84-.28.2-.54.39-.83.56-.08.04-.15.09-.22.14-.22.14-.42.31-.59.51-.22.26-.37.54-.37.89,0,.02,0,.03,0,.05.02.45.05.9.1,1.35.02.15.01.37.04.58.03.21.09.41.25.52.12.08.24.12.36.12.23,0,.45-.13.66-.25h0c.19-.11.39-.22.58-.33.39-.22.77-.46,1.14-.71h0c.39-.26.74-.56,1.1-.85h0c.36-.3.7-.61,1.05-.92h0c.77-.71,1.46-1.51,2.27-2.17.18-.14.37-.27.58-.31.04,0,.08-.01.12-.01.18,0,.35.07.45.21.03.04.06.09.08.13.05.1.07.21.07.31,0,.35-.24.74-.54,1.08-.3.34-.66.65-.87.85-.44.42-.89.83-1.37,1.21-.49.39-.87.7-1.13.89h0c-.27.19-.4.29-.4.29-.64.45-1.28.88-1.94,1.29-.37.24-.76.45-1.14.68-.34.21-.64.47-.79.87-.07.19-.09.37-.09.56,0,.19.03.37.06.56.07.43.15.85.22,1.28.02.12.04.25.04.39,0,.1,0,.2-.03.29-.03.1-.07.19-.14.27-.12.14-.29.2-.45.2h0c-.24,0-.48-.11-.65-.29-.13-.15-.22-.33-.28-.51-.06-.18-.1-.37-.13-.55-.05-.25-.09-.5-.14-.74-.04-.22-.06-.46-.17-.68-.2-.38-.48-.73-.83-.98-.44-.31-.87-.62-1.28-.96-.83-.69-1.62-1.44-2.43-2.16-.83-.74-1.69-1.46-2.5-2.24-.51-.5-1.02-1-1.5-1.53-.19-.21-.41-.41-.58-.64-.18-.23-.31-.47-.33-.76,0-.02,0-.04,0-.06,0-.23.09-.46.27-.57.09-.05.19-.07.29-.07.07,0,.15.01.22.03.63.16,1.08.72,1.5,1.21.42.49.87.97,1.31,1.43.49.51.88.88,1.14,1.14h0c.26.25.4.39.4.38h0c.42.37.82.77,1.24,1.14.32.28.64.55.97.82.14.11.28.2.41.3.15.11.26.25.45.33.08.03.17.05.25.05.13,0,.26-.04.35-.14.12-.13.15-.31.17-.47.02-.2.03-.4.03-.6,0-.55-.09-1.1-.15-1.65-.03-.24-.04-.49-.13-.72-.1-.25-.25-.42-.38-.62-.12-.2-.26-.38-.42-.56-.33-.37-.71-.7-1.07-1.04-.42-.39-.82-.81-1.21-1.23-.18-.2-.37-.39-.52-.6-.17-.23-.35-.44-.52-.67-.69-.9-1.34-1.83-1.98-2.78-.52-.77-1.01-1.56-1.51-2.35-.15-.24-.43-.59-.66-.97-.24-.38-.43-.8-.42-1.17,0-.19.06-.36.18-.52.14-.17.33-.24.53-.23.14,0,.28.04.4.11.59.32.84,1.05,1.2,1.66.34.59.69,1.18,1.07,1.74.45.67.78,1.19,1.03,1.52.12.17.21.3.27.38.03.04.05.07.07.1l.02.02h0c.44.63.9,1.22,1.38,1.8.42.5.89,1.03,1.47,1.34.09.04.2.09.31.09.08,0,.16-.03.23-.1.05-.07.08-.15.11-.22.14-.45.14-.9.15-1.36,0-.29.01-.58.01-.87,0-.24,0-.48,0-.73-.02-.7-.33-1.47-.66-2.05-.2-.36-.45-.67-.67-1.01-.25-.38-.51-.75-.77-1.12-.46-.65-.94-1.29-1.39-1.96-.2-.31-.41-.61-.6-.92h0c-.1-.16-.2-.31-.29-.47-.09-.16-.18-.32-.26-.48-.14-.27-.29-.58-.28-.88,0-.09.02-.18.05-.27.09-.24.34-.4.59-.41.02,0,.04,0,.07,0,.23,0,.45.11.63.27.35.32.5.84.74,1.28.22.4.45.8.69,1.19.26.42.45.75.6.96.14.22.21.33.21.33.28.44.55,1.01.99,1.32.09.07.2.12.32.12h0s0,0,0,0c.13,0,.26-.06.35-.16.11-.14.11-.3.12-.45.02-.22.02-.44.03-.65.02-.43.04-.87.06-1.3,0-.19.02-.38.02-.58,0-.42-.01-.85-.12-1.26-.09-.33-.23-.64-.37-.95-.23-.51-.46-1.03-.73-1.52-.13-.23-.27-.45-.39-.68-.13-.26-.27-.52-.41-.78-.17-.32-.34-.64-.51-.97h0c-.3-.6-.62-1.19-.85-1.82-.11-.32-.22-.61-.24-.95,0-.06,0-.12,0-.17,0-.21.06-.42.16-.6.13-.22.37-.37.61-.36h.02c.18.01.31.1.41.22.1.12.17.29.22.45.13.45.31.9.49,1.33.12.3.24.59.37.88.12.29.22.6.36.88.11.23.25.45.41.65.05.06.11.14.18.2.07.07.16.12.25.13h0s0,0,0,0c.09,0,.18-.05.25-.11.07-.06.13-.14.16-.21.09-.18.11-.38.16-.56.06-.23.06-.48.09-.7,0-.07.02-.13.03-.2h-.02c-.03-.63-.09-1.26-.18-1.88-.04-.3-.08-.61-.18-.9-.1-.29-.22-.56-.32-.84-.14-.38-.33-.75-.41-1.14-.07-.32-.1-.65-.09-.98,0-.07,0-.14.01-.22,0-.09.02-.18.05-.25.03-.07.1-.12.17-.16.08-.04.17-.05.25-.06.06,0,.11,0,.16,0,.09,0,.17.02.24.05.16.08.21.23.23.29.1.34.21.68.31,1.03.02.07.06.24.13.39.03.08.07.15.12.21.05.06.11.1.18.11.06,0,.11-.02.17-.07.04-.04.07-.08.09-.13.07-.14.12-.28.17-.42h0c.09-.33.19-.67.29-1.01.28-.93.52-1.83,1-2.67.14-.25.31-.51.54-.66.14-.09.31-.14.47-.14.11,0,.21.04.3.1.17.12.26.36.26.58,0,.03,0,.06,0,.08,0,.2-.06.4-.12.6-.33,1.18-.66,2.36-.98,3.54-.04.15-.08.29-.12.43h0s0,.01,0,.01v.02s-.01.09-.01.15c0,.02,0,.05,0,.07,0,.07.03.13.07.16.03.04.08.06.13.06.09,0,.18-.04.28-.1.3-.18.64-.55.72-.64.27-.31.52-.64.82-.91.15-.13.31-.25.49-.29.04-.01.09-.01.13-.01.28,0,.53.26.59.54.01.05.02.1.01.15,0,.06-.01.11-.03.16-.03.08-.07.15-.09.18h0c-.16.27-.34.49-.5.71-.17.2-.33.4-.49.57h0c-.32.34-.6.61-.84.82-.24.21-.43.37-.55.47s-.2.15-.2.15c-.2.14-.39.28-.59.42-.18.12-.35.23-.49.41-.12.16-.22.34-.31.52-.06.13-.11.27-.15.41h0s0,0,0,0c-.1.55-.19,1.09-.25,1.58h0c-.02.22-.05.44-.07.65h0c-.02.22-.04.44-.06.66,0,.04,0,.08-.01.13h0s0,.02,0,.02c.04.15.11.29.21.39.07.06.15.09.23.09.22,0,.45-.14.6-.23.28-.18.57-.37.83-.58.53-.44,1.02-.94,1.47-1.45.11-.12.21-.23.31-.35h0c.1-.12.2-.25.29-.37.1-.12.19-.24.29-.36h0c.13-.17.27-.37.43-.51.16-.15.34-.25.56-.24h.02c.19.02.38.12.51.27.06.07.1.16.13.25.02.07.03.15.02.22,0,.16-.05.32-.12.46-.11.21-.27.4-.42.58-.61.7-1.21,1.37-1.89,1.99-.09.08-.17.14-.21.18-.05.04-.07.06-.07.06h0c-.58.46-1.17.91-1.78,1.34-.44.32-.95.63-1.25,1.11-.34.53-.47,1.11-.51,1.73-.06.8-.08,1.21-.08,1.21-.06.91-.11,1.77-.15,2.59h0s0,.01,0,.01c.04.16.13.31.27.38.07.03.14.05.21.05.07,0,.13,0,.2-.03.23-.07.41-.21.59-.35.19-.14.39-.28.57-.44.28-.24.53-.5.79-.76h0c.24-.28.49-.54.72-.83.62-.75,1.12-1.63,1.85-2.24.17-.14.38-.25.58-.24.07,0,.13.02.2.05.04.02.08.04.11.07.14.12.22.33.22.54v.02c0,.24-.1.48-.22.71-.44.85-1.11,1.59-1.78,2.27-.35.36-.63.63-.82.81-.2.17-.3.26-.3.26-.57.49-1.16.97-1.76,1.41-.25.18-.5.37-.72.6-.25.26-.38.55-.48.9-.13.46-.16.94-.17,1.41,0,.26,0,.52.01.77.01.43.03.86.05,1.29.02.35-.01.78.24,1.09.12.15.29.2.45.2.24,0,.49-.1.68-.18.41-.17.78-.43,1.13-.7.53-.41,1.1-.77,1.61-1.23.38-.33.73-.69,1.09-1.05h0c.34-.37.69-.74,1.02-1.11.61-.69,1.16-1.42,1.73-2.12.16-.2.33-.39.49-.59h0c.16-.2.32-.4.48-.6h0c.08-.1.16-.2.24-.3h0c.12-.17.25-.37.39-.52.15-.16.31-.27.52-.26.02,0,.04,0,.06,0,.1.01.2.06.28.13.12.11.2.28.22.45,0,.04,0,.07,0,.11,0,.24-.1.49-.22.71Z"/>
  </g>
</svg>