     <svg
                    xmlns="http://www.w3.org/2000/svg"
                    class="size-4 shrink-0"
                    viewBox="0 0 203.38 174.48">
                    <path
                      class="fill-hotpink-500"
                      d="M203.27,160.01c-.03-.35-.08-.68-.14-.99l-.18-.95-.23-.88c-.64-2.35-1.63-4.3-2.7-6.14-1.08-1.83-2.26-3.5-3.5-5.14-.54-.7-1.11-1.37-1.67-2.04-1.86-2.32-3.85-4.47-5.9-6.47-.31-.3-.77-.6-.93-.86-1.78-2.93-4.76-4.35-7.2-6.29-2.57-2.05-5.05-4.11-7.37-6.21l-1.71-1.58-1.77-1.69-3.56-3.37c-2.23-2.1-4.49-4.8-6.7-6.12-2.53-1.51-4.47-3.44-6.63-5.21-1.39-1.14-2.58-2.57-4.2-3.33-.52-.25-1.24-.99-1.75-1.55-4.77-5.25-10.52-9.55-15.57-14.62-1.26-1.26-2.57-2.38-3.96-3.5-.04-.03-.09-.07-.11-.12-.03-.07-.01-.14,0-.21.14-.48.43-.91.73-1.31,1.93-2.54,4.83-4.43,7.18-6.57,2.65-2.41,5.24-4.88,7.93-7.23,3.37-2.94,6.85-5.71,10.17-8.81,2.35-2.2,5.26-3.94,7.87-5.98,4-3.12,7.97-6.31,11.94-9.54,4.19-3.43,8.33-6.83,12.51-10.66.97-.9,1.68-2.03,2.78-3.27,1.39-1.63,2.6-3.21,3.78-4.93.58-.86,1.15-1.75,1.69-2.69.27-.47.53-.96.79-1.45l.5-1.02c.18-.39.33-.79.5-1.18.75-1.86,1.25-3.8,1.38-5.68.13-1.89-.18-3.7-.85-5.38-.7-1.67-1.84-3.16-3.27-4.28-1.41-1.15-3.13-1.9-4.91-2.39-.55-.09-1.1-.23-1.67-.26l-.84-.08h-.86c-1.15.06-2.33.24-3.5.55-.59.12-1.17.33-1.75.52-.58.19-1.17.38-1.71.63-.77.31-1.43.62-2.12.95-2.68,1.31-5.07,2.74-7.37,4.22-.6.39-1.32.8-1.72,1.23-2.37,2.54-5.22,4.31-8.13,6.13-.62.39-1.34,1-1.76,1.52-2.45,3.03-5.36,5.73-8.73,8.08-10.71,7.45-20.37,16.3-29.93,25.1-2.39,2.2-4.39,4.77-6.68,7.06-2.54,2.55-5.08,5.1-7.62,7.65-.27.27-.57.56-.94.62-.29.05-.59-.04-.86-.14-2.47-.87-4.28-2.58-6.13-4.35l-2.23-2.12s0,.03,0,.04c-.56-.55-1.14-1.1-1.7-1.65-2.32-2.31-4.33-4.91-6.74-7.12-9.56-8.8-19.22-17.66-29.93-25.1-3.38-2.34-6.28-5.05-8.73-8.08-.42-.52-1.14-1.12-1.76-1.52-2.91-1.82-5.75-3.59-8.13-6.13-.4-.43-1.12-.85-1.72-1.23-2.3-1.48-4.69-2.91-7.37-4.22-.69-.32-1.35-.64-2.12-.95-.55-.24-1.14-.44-1.71-.63-.58-.19-1.16-.41-1.75-.52-1.17-.31-2.35-.49-3.5-.53h-.86s-.84.07-.84.07c-.57.04-1.11.17-1.67.26-1.78.49-3.5,1.24-4.91,2.39-1.43,1.12-2.57,2.61-3.27,4.28-.67,1.68-.98,3.49-.85,5.38.12,1.88.63,3.82,1.38,5.68.17.39.32.79.5,1.18l.5,1.02c.26.5.52.98.79,1.45.54.94,1.11,1.83,1.69,2.69,1.18,1.73,2.39,3.31,3.78,4.93,1.1,1.24,1.81,2.37,2.78,3.27,4.18,3.83,8.32,7.23,12.51,10.66,3.96,3.23,7.94,6.42,11.94,9.54,2.61,2.04,5.52,3.78,7.87,5.98,3.32,3.1,6.8,5.87,10.17,8.81,2.68,2.35,5.26,4.81,7.9,7.2,2.37,2.15,5.31,4.06,7.23,6.63.3.4.58.82.72,1.3.02.07.04.15.01.22-.03.08-.1.13-.16.17-1.44,1-2.69,2.19-3.92,3.43-5.05,5.07-10.8,9.37-15.57,14.62-.51.56-1.23,1.3-1.75,1.55-1.63.77-2.81,2.19-4.2,3.33-2.16,1.77-4.1,3.7-6.63,5.21-2.2,1.32-4.47,4.02-6.7,6.12l-3.56,3.37-1.77,1.69-1.71,1.58c-2.32,2.1-4.8,4.15-7.37,6.21-2.44,1.94-5.42,3.36-7.2,6.29-.15.26-.62.57-.93.86-2.05,2-4.04,4.14-5.9,6.47-.56.66-1.13,1.34-1.67,2.04-1.24,1.64-2.41,3.31-3.5,5.14-1.07,1.84-2.06,3.79-2.7,6.14l-.23.88-.18.95c-.06.31-.11.63-.14.99-.04.39-.1.86-.1,1.24-.04,1.6.21,3.16.72,4.64,1.21,3.08,3.5,5.66,6.64,7.21,2.7,1.37,5.38,1.48,7.83,1.31,2.48-.19,4.74-.65,7.33-1.25.67-.16,1.52-.8,2.25-1.24,2.39-1.63,4.37-3.28,6.31-4.86,1.97-1.57,3.9-3.07,6.02-4.36,1.06-.64,2.33-1.72,3.08-2.65,3.38-4.26,7.62-6.99,11.55-10.24,3.24-2.68,6.36-5.61,9.44-8.29.77-.68,1.47-1.37,2.16-2.05.66-.67,1.5-1.42,2.31-2.06,3.88-3.06,7.84-6.04,11.81-8.98.94-.7,1.99-1.37,2.96-1.84,1.92-.93,3.55-2.11,4.91-3.59.84-.91,1.79-1.92,2.82-2.65,3.04-2.14,5.95-4.45,8.9-6.58.95-.58,2.23-1.94,3.32-2.01.41-.03.81-.06,1.22-.08.38-.03.75-.05,1.13,0,1.17.14,2.03.94,2.94,1.6,1.07.77,2.15,1.53,3.2,2.32,2.13,1.6,4.24,3.22,6.41,4.76,1.03.72,1.98,1.74,2.82,2.65,1.36,1.48,2.99,2.66,4.91,3.59.97.47,2.02,1.14,2.96,1.84,3.97,2.94,7.94,5.92,11.81,8.98.81.65,1.64,1.39,2.31,2.06.7.68,1.39,1.37,2.16,2.05,3.08,2.68,6.2,5.61,9.44,8.29,3.93,3.25,8.17,5.98,11.55,10.24.75.94,2.01,2.01,3.08,2.65,2.12,1.3,4.05,2.79,6.02,4.36,1.94,1.58,3.92,3.23,6.31,4.86.74.44,1.59,1.08,2.25,1.24,2.59.6,4.85,1.07,7.33,1.25,2.45.17,5.12.06,7.83-1.31,3.14-1.55,5.42-4.14,6.64-7.21.51-1.48.76-3.04.72-4.64,0-.38-.06-.85-.1-1.24Z" />
                  </svg>