<?xml version="1.0" encoding="UTF-8"?>
<svg id="Layer_2" data-name="Layer 2" xmlns="http://www.w3.org/2000/svg" xmlns:xlink="http://www.w3.org/1999/xlink" viewBox="0 0 565.48 217.36">
  <defs>
    <style>
      .cls-1 {
        fill: none;
      }

      .cls-2 {
        clip-path: url(#clippath-1);
      }

      .cls-3 {
        clip-path: url(#clippath);
      }

      .cls-4 {
        fill: #737438;
      }
    </style>
    <clipPath id="clippath">
      <rect class="cls-1" width="565.48" height="217.36"/>
    </clipPath>
    <clipPath id="clippath-1">
      <rect class="cls-1" x="-11" width="620" height="217.36"/>
    </clipPath>
  </defs>
  <g id="Layer_11" data-name="Layer 11">
    <g class="cls-3">
      <g class="cls-2">
        <path class="cls-4" d="M-35.03,134.34c-.07,2.21-.1,4.43-.09,6.65,0,1.11.02,2.22.06,3.35l.03.88.07,1.06.17,2.12c.88,10.26,2.07,20.13,4.94,30.11.59,1.98,1.25,4.03,2.24,5.94.47.96.97,1.94,1.48,2.91.51.98,1.04,1.95,1.67,2.85,1.24,1.83,2.46,3.69,3.83,5.43,1.41,1.68,2.84,3.36,4.23,5.01,5.72,6.2,12.27,9.72,18.6,11.69,1.62.43,3.22.8,4.8,1.12l1.17.23c.39.06.8.09,1.2.14l2.38.22c3.12.37,6.28.16,9.34.07,8.39-.74,26.15,2.79,41.01,2.31,4.75-.16,9.49-.51,14.23-.75.88-.04,1.75-.11,2.62-.06,5.84.31,11.69.96,17.52.91,10.63-.07,21.25-.38,31.85-.93,20.72-1.05,41.32.27,61.97.84,3.75.11,7.54-.78,11.32-.85,4.97-.1,9.94.16,14.91.26,11.13.23,22.33,1.07,33.34.51,9.25-.48,18.44-.74,27.7-.78,7.48-.04,14.96-.38,22.43-.67,3.27-.12,6.08.47,9.16,1.15,7.14,1.58,14.72,1.1,22.19.93,4.98-.12,9.99-.12,14.94.11,9.83.48,19.58.27,29.2-1.02,13.42-1.8,26.76-2.15,40.39-.64,5.41.59,11.49.16,16.87-.75,11.48-1.96,23.07-1.46,34.64-1.37,14.58.11,29.15.59,43.72.72,6.12.06,12.23.06,18.35.04l9.18-.06,4.59-.05c1.71-.09,3.5-.21,5.24-.33,1.4-.04,2.78-.35,4.17-.57,1.38-.26,2.79-.41,4.16-.78,2.72-.78,5.49-1.43,8.08-2.63,5.3-2.04,10.08-5.26,14.11-8.99,1.08-1.09,2.16-2.16,3.25-3.25,1.09-1.06,2.04-2.3,3.06-3.42l1.51-1.72c.47-.6.92-1.23,1.38-1.85.89-1.26,1.86-2.44,2.68-3.74,3.36-5.16,5.88-10.91,7.23-16.88,1.21-6.07,2.46-12.43,3.69-18.62,1.05-6.43,2.32-12.05,4.69-17.22.28-.63.93-1.22.91-1.75-.57-11.25,1.42-22.45-.15-33.81-.64-4.59-.4-9.91.08-14.68.82-8.2.3-16.06-.31-24.17-.5-6.61-.6-13.15.48-20.2.74-4.85,1.25-9.89,1.42-15.01l.06-1.93v-.96s-.05-1.15-.05-1.15c-.07-1.53-.16-3.06-.28-4.59-.08-1.53-.42-3.04-.72-4.54-.33-1.49-.59-3-1.06-4.44-.58-1.72-1.06-3.51-1.53-5.32-.49-1.8-1.16-3.56-1.8-5.28-3.19-7.91-7.64-15.11-12.96-21.37-5.33-6.27-11.53-11.62-18.35-16-6.55-4.2-14.06-6.74-21.66-7.52-1.9-.22-3.82-.22-5.72-.32l-1.42-.04h-1.22s-2.43.02-2.43.02c-3.23.04-6.46.02-9.69-.09-1.58-.06-3.37.22-4.74-.15-9.48-2.54-19.12-1.63-28.83-.85-2.89.22-5.92.02-8.86-.17-16.01-1.09-31.61-.04-46.99,3.04-6.48,1.3-13.19,2.35-19.91,2.84-9.2.68-18.18,2.65-27.62,2.06-1.58-.1-3.19-.02-4.75-.17-8.04-.77-16.13-1.38-24.08-2.42-9.52-1.23-18.93-.57-28.45-.28-9.07.26-18.2-.38-27.3-.36-10.7.02-21.39.36-32.09.51-3.87.05-7.95.48-11.58-.11-12.37-2.01-24.93-1.41-37.41-1.3-6.93.06-13.82,1.36-20.72,2.11-9.36,1.01-18.84,2.02-27.76-.89-6.11-1.99-12.62-2.22-19.15-2.61-16.77-.99-33.57-.7-50.37-.4-2.45.05-4.89.51-7.34.77-2.43.27-4.85.73-7.29.77-15.72.27-31.49.07-47.14.83-2.29.11-4.56.21-6.82.27-2.3.05-4.59.09-6.87.12l-3.77.14c-.64.02-1.26,0-1.89.07l-1.88.21-3.78.37-3.78.62c-.87.14-1.74.37-2.62.65-.85.37-1.71.74-2.55,1.11-1.17.52-2.36.96-3.5,1.54l-3.36,1.85-1.67.94-1.58,1.09-3.16,2.2c-1.03.77-1.98,1.64-2.97,2.47-.97.85-1.99,1.62-2.87,2.59-1.8,1.86-3.66,3.67-5.21,5.78-.81,1.04-1.62,2.09-2.29,3.23-.64,1.16-1.24,2.35-1.82,3.51-3.13,6.62-5.84,12.77-9.33,19.16-.6,1.25-1.2,2.53-1.75,3.84l-.82,1.99-.62,2.07c-.4,1.4-.77,2.82-1.12,4.26-.28,1.44-.43,2.93-.62,4.42-.39,3.17-.4,5.54-.42,8.25,0,2.64.1,5.33.3,8.05.31,4.25-.3,8.85-.82,13.15-1.01,8.27-.87,16.62-1.04,24.98-.15,7.35-.81,14.64-1.22,21.98-.49,8.78-1.44,17.48-2.14,26.22-.35,4.37-.65,8.75-.79,13.17h.05Z"/>
      </g>
    </g>
  </g>
</svg>