<?xml version="1.0" encoding="UTF-8"?>
<svg id="Layer_11" data-name="Layer 11" xmlns="http://www.w3.org/2000/svg" viewBox="0 0 565.48 217.36">
  <defs>
    <style>
      .cls-1 {
        fill: oklch(97% 0.001 106.424);
      }
    </style>
  </defs>
  <path class="cls-1" d="M565.4,150.12c-.12-3.58-.38-7.13-.69-10.67-.62-7.08-1.45-14.13-1.88-21.24-.36-5.94-.94-11.85-1.07-17.8-.15-6.77-.02-13.53-.91-20.23-.46-3.48-.99-7.21-.72-10.65.17-2.2.26-4.38.26-6.52-.02-2.19-.03-4.11-.37-6.68-.16-1.21-.29-2.41-.54-3.58-.3-1.17-.63-2.32-.98-3.45l-.54-1.68-.72-1.61c-.49-1.06-1.01-2.1-1.54-3.11-3.06-5.18-5.44-10.16-8.19-15.52-.51-.94-1.04-1.9-1.6-2.84-.59-.93-1.3-1.78-2.01-2.62-1.36-1.71-2.99-3.17-4.57-4.68-.77-.79-1.67-1.41-2.52-2.1-.87-.67-1.71-1.38-2.61-2l-2.77-1.78-1.39-.88-1.47-.76-2.95-1.5c-1-.47-2.04-.83-3.07-1.25-.74-.3-1.49-.6-2.24-.9-.77-.23-1.54-.42-2.3-.53l-3.32-.5-3.32-.3-1.65-.17c-.55-.06-1.1-.04-1.66-.06l-3.31-.11c-2-.03-4.01-.06-6.03-.1-1.99-.05-3.98-.13-5.99-.22-13.74-.61-27.59-.45-41.39-.67-2.14-.03-4.27-.4-6.4-.62-2.15-.21-4.29-.58-6.44-.62-14.75-.25-29.5-.48-44.22.32-5.73.31-11.45.5-16.81,2.11-7.83,2.36-16.15,1.54-24.37.72-6.06-.61-12.11-1.66-18.19-1.71-10.95-.09-21.98-.58-32.84,1.05-3.19.48-6.77.13-10.17.09-9.39-.12-18.78-.39-28.17-.41-7.99-.02-16.01.5-23.97.29-8.36-.23-16.62-.77-24.98.23-6.98.84-14.08,1.34-21.14,1.96-1.37.12-2.78.06-4.17.14-8.29.48-16.17-1.12-24.25-1.67-5.9-.4-11.79-1.25-17.48-2.3-13.5-2.49-27.19-3.34-41.25-2.46-2.58.16-5.24.32-7.78.14-8.52-.63-16.99-1.37-25.31.69-1.2.3-2.77.07-4.16.12-2.84.09-5.67.1-8.51.07l-2.13-.02h-1.07s-1.25.03-1.25.03c-1.67.08-3.35.08-5.02.26-6.68.63-13.27,2.69-19.02,6.09-5.99,3.55-11.43,7.88-16.11,12.96-4.67,5.07-8.58,10.9-11.38,17.31-.56,1.4-1.15,2.82-1.58,4.28-.41,1.47-.83,2.92-1.34,4.31-.41,1.17-.64,2.39-.93,3.6-.26,1.22-.56,2.44-.63,3.68-.11,1.24-.19,2.48-.25,3.72l-.04.93v.78s.05,1.56.05,1.56c.15,4.15.6,8.23,1.25,12.16.95,5.71.86,11.01.42,16.36-.53,6.57-.99,12.94-.27,19.58.42,3.86.63,8.17.07,11.89-1.38,9.2.37,18.27-.13,27.38-.02.43.55.91.8,1.42,2.08,4.19,3.2,8.74,4.12,13.95,1.08,5.01,2.18,10.16,3.24,15.08,1.19,4.83,3.4,9.49,6.35,13.67.72,1.05,1.57,2.01,2.35,3.03.4.5.8,1.01,1.21,1.5l1.33,1.39c.9.91,1.73,1.91,2.69,2.77.95.88,1.9,1.75,2.85,2.63,3.54,3.02,7.74,5.63,12.39,7.28,2.27.97,4.7,1.5,7.09,2.13,1.2.3,2.44.42,3.65.63,1.22.18,2.43.43,3.66.46,1.53.1,3.1.2,4.6.27l4.03.04,8.06.05c5.37.02,10.74.02,16.11-.03,12.79-.1,25.58-.49,38.38-.58,10.16-.07,20.33-.48,30.41,1.11,4.72.74,10.06,1.09,14.81.61,11.97-1.22,23.68-.94,35.46.52,8.45,1.05,17.01,1.22,25.64.83,4.35-.19,8.75-.19,13.12-.09,6.56.14,13.21.53,19.48-.75,2.7-.55,5.17-1.03,8.04-.93,6.56.23,13.12.51,19.69.54,8.13.03,16.2.24,24.32.63,9.67.46,19.5-.22,29.27-.41,4.36-.08,8.73-.29,13.09-.21,3.32.06,6.65.78,9.94.69,18.13-.46,36.22-1.53,54.41-.68,9.3.44,18.63.69,27.96.75,5.12.04,10.25-.49,15.38-.74.76-.04,1.53.02,2.3.05,4.16.2,8.32.48,12.49.61,13.04.39,28.63-2.47,36-1.87,2.69.07,5.46.24,8.2-.06l2.09-.18c.35-.04.71-.06,1.05-.11l1.03-.19c1.38-.26,2.79-.56,4.21-.91,5.56-1.6,11.31-4.45,16.33-9.47,1.22-1.34,2.47-2.7,3.71-4.06,1.2-1.41,2.27-2.92,3.36-4.4.56-.73,1.02-1.52,1.47-2.31.45-.79.89-1.58,1.3-2.36.87-1.55,1.45-3.21,1.97-4.81,2.52-8.09,3.57-16.08,4.34-24.39l.15-1.72.06-.86.03-.71c.03-.91.05-1.81.05-2.71.01-1.8-.02-3.6-.08-5.39Z"/>
</svg>