   <svg
            aria-hidden="true"
            class="h-full w-full text-[var(--your-stroke-custom-property)] [&_path]:stroke-current"
            viewBox="0 0 1600 800"
            preserveAspectRatio="xMidYMid slice"
            xmlns="http://www.w3.org/2000/svg">
            <path
              d="M1596,133.681C1596,133.681,1580.615,125.365,1575.879,119.14C1571.257,113.063,1567.492,104.099,1567.645,96.97C1567.79,90.216,1571.466,82.927,1575.879,77.41C1580.643,71.456,1596,63.052,1596,63.052"
              stroke="#71717a"
              stroke-width="2"
              fill="none"
              stroke-linecap="round"
              stroke-miterlimit="4"></path>
            <path
              d="M1596,182.809C1596,182.809,1571.173,177.35,1559.799,172.225C1548.38,167.08,1536.299,159.737,1527.638,151.963C1520.083,145.182,1513.968,138.049,1509.674,129.293C1505.068,119.899,1501.844,106.985,1501.706,96.97C1501.586,88.324,1503.357,80.704,1506.977,72.727C1511.259,63.295,1519.095,52.707,1527.638,44.865C1536.554,36.68,1548.389,30.031,1559.799,25.034C1571.18,20.049,1596,14.895,1596,14.895"
              stroke="#71717a"
              stroke-width="2"
              fill="none"
              stroke-linecap="round"
              stroke-miterlimit="4"></path>
            <path
              d="M1596,215.279C1596,215.279,1566.159,210.966,1551.759,206.188C1536.926,201.266,1520.727,193.94,1508.363,185.859C1497.532,178.779,1488.434,170.993,1480.707,161.616C1472.915,152.16,1465.855,141.113,1461.883,129.293C1457.739,116.963,1455.905,101.503,1456.967,88.889C1457.934,77.407,1461.577,66.55,1466.578,56.566C1471.669,46.402,1478.775,36.95,1487.437,28.533C1497.02,19.221,1522.46,4,1522.46,4"
              stroke="#71717a"
              stroke-width="2"
              fill="none"
              stroke-linecap="round"
              stroke-miterlimit="4"></path>
            <path
              d="M1596,243.875C1596,243.875,1560.551,240.405,1543.719,235.87C1527.055,231.381,1510.309,225.206,1495.477,216.915C1480.865,208.745,1466.275,197.888,1455.276,186.66C1445.368,176.546,1437.422,165.666,1431.397,153.535C1425.268,141.195,1420.725,126.75,1419.016,113.131C1417.344,99.807,1417.936,85.933,1420.945,72.727C1424.079,58.974,1430.634,44.08,1438.044,32.323C1444.924,21.407,1463.104,4,1463.104,4"
              stroke="#71717a"
              stroke-width="2"
              fill="none"
              stroke-linecap="round"
              stroke-miterlimit="4"></path>
            <path
              d="M1432.601,630.303C1437.674,642.882,1451.056,657.54,1463.317,664.919C1474.909,671.895,1491.278,676.698,1503.518,674.692C1515.204,672.776,1529.714,664.794,1535.403,654.545C1541.854,642.926,1540.998,620.23,1535.706,606.061C1530.399,591.853,1516.702,576.098,1503.518,569.449C1490.864,563.068,1471.022,560.981,1458.772,565.657C1447.18,570.081,1435.349,583.682,1431.156,594.886C1427.219,605.404,1428.162,619.294,1432.601,630.303"
              stroke="#71717a"
              stroke-width="2"
              fill="none"
              stroke-linecap="round"
              stroke-miterlimit="4"></path>
            <path
              d="M1374.874,578.284C1374.874,578.284,1370.722,608.518,1372.334,622.222C1373.807,634.749,1377.447,646.212,1382.915,657.441C1388.747,669.419,1396.984,681.337,1407.035,691.633C1418.029,702.893,1431.999,713.54,1447.236,721.461C1463.821,730.082,1485.249,737.475,1503.518,740.141C1519.999,742.546,1537.849,742.837,1551.759,738.663C1563.954,735.002,1575.923,727.868,1583.337,719.192C1590.311,711.031,1596,688.906,1596,688.906"
              stroke="#71717a"
              stroke-width="2"
              fill="none"
              stroke-linecap="round"
              stroke-miterlimit="4"></path>
            <path
              d="M1596,272.147C1596,272.147,1554.449,270.193,1535.678,266.148C1518.476,262.441,1502.409,256.922,1487.437,249.872C1473.007,243.077,1459.73,235.163,1447.236,224.96C1433.918,214.084,1420.051,199.762,1410.369,185.859C1401.499,173.121,1394.882,159.917,1390.321,145.455C1385.566,130.374,1382.828,113.119,1382.975,96.97C1383.123,80.796,1385.944,63.882,1391.229,48.485C1396.58,32.896,1415.075,4.07,1415.075,4.07"
              stroke="#71717a"
              stroke-width="2"
              fill="none"
              stroke-linecap="round"
              stroke-miterlimit="4"></path>
            <path
              d="M1511.192,796C1511.192,796,1452.581,779.797,1431.156,768.381C1414.63,759.576,1402.893,749.189,1390.955,738.023C1379.512,727.32,1369.486,717.751,1360.657,703.03C1349.202,683.932,1336.18,655.609,1332.707,630.303C1329.163,604.474,1334.188,570.639,1340.336,549.495C1344.685,534.539,1350.74,524.522,1358.794,513.321C1367.362,501.405,1379.565,489.151,1390.955,480.483C1401.14,472.733,1411.446,467.048,1423.116,462.697C1435.455,458.096,1450.616,454.797,1463.317,454.186C1474.588,453.644,1484.416,454.74,1495.477,457.822C1508.411,461.425,1521.907,466.451,1535.678,476.3C1555.052,490.156,1596,539.777,1596,539.777"
              stroke="#71717a"
              stroke-width="2"
              fill="none"
              stroke-linecap="round"
              stroke-miterlimit="4"></path>
            <path
              d="M1589.268,796L1596,794.706"
              stroke="#71717a"
              stroke-width="2"
              fill="none"
              stroke-linecap="round"
              stroke-miterlimit="4"></path>
            <path
              d="M1596,303.038C1596,303.038,1554.535,305.66,1535.678,303.455C1518.569,301.454,1503.115,297.807,1487.437,291.663C1470.909,285.185,1454.573,276.241,1439.196,264.849C1422.232,252.28,1403.91,234.859,1390.873,218.182C1378.971,202.955,1369.608,186.342,1362.847,169.697C1356.458,153.967,1352.414,138.676,1350.596,121.212C1348.528,101.348,1349.596,76.772,1353.184,56.566C1356.499,37.898,1370.109,4,1370.109,4"
              stroke="#71717a"
              stroke-width="2"
              fill="none"
              stroke-linecap="round"
              stroke-miterlimit="4"></path>
            <path
              d="M4,423.934C4,423.934,24.53,406.425,30.538,395.96C36.151,386.181,39.886,374.419,39.942,363.636C39.999,352.87,36.088,341.604,30.905,331.313C25.18,319.949,5.787,298.99,5.787,298.99"
              stroke="#71717a"
              stroke-width="2"
              fill="none"
              stroke-linecap="round"
              stroke-miterlimit="4"></path>
            <path
              d="M1358.726,796C1358.726,796,1311.823,698.241,1302.657,662.626C1296.91,640.294,1296.662,624.859,1296.65,606.061C1296.638,587.378,1298.617,567.765,1302.513,550.183C1306.166,533.697,1311.669,517.877,1318.593,503.476C1325.207,489.72,1330.544,479.62,1342.714,465.403C1363.373,441.267,1426.333,398.076,1440.394,379.798C1445.634,372.986,1448.117,369.638,1448.406,363.636C1448.754,356.439,1445.027,349.63,1439.176,339.394C1426.144,316.595,1378.061,269.234,1358.794,238.918C1344.772,216.856,1335.797,199.585,1328.687,177.778C1321.287,155.081,1317.244,131.367,1315.993,105.051C1314.526,74.215,1323.866,4,1323.866,4"
              stroke="#71717a"
              stroke-width="2"
              fill="none"
              stroke-linecap="round"
              stroke-miterlimit="4"></path>
            <path
              d="M1596,480.373C1596,480.373,1533.658,408.792,1533.507,387.879C1533.43,377.223,1541.331,370.483,1549.381,363.636C1560.063,354.551,1596,342.9,1596,342.9"
              stroke="#71717a"
              stroke-width="2"
              fill="none"
              stroke-linecap="round"
              stroke-miterlimit="4"></path>
            <path
              d="M4,452.985C4,452.985,51.211,425.216,64.234,412.121C72.481,403.829,77.089,396.334,80.489,387.879C83.611,380.114,85.82,373.216,84.749,363.636C83.058,348.515,73.376,323.918,61.055,307.071C47.442,288.458,4.02,258.586,4.02,258.586"
              stroke="#71717a"
              stroke-width="2"
              fill="none"
              stroke-linecap="round"
              stroke-miterlimit="4"></path>
            <path
              d="M1268.387,796C1268.387,796,1284.452,775.81,1286.924,759.596C1291.213,731.468,1268.666,677.466,1266.324,638.384C1264.157,602.237,1266.591,562.741,1271.434,533.333C1275.056,511.341,1279.175,497.659,1287.567,476.768C1299.026,448.241,1329.482,403.876,1338.803,379.798C1343.945,366.514,1346.683,358.902,1347.145,347.475C1347.658,334.809,1344.79,324.257,1340.139,307.071C1331.347,274.574,1300.294,218.406,1288.933,169.697C1276.824,117.78,1272.06,4,1272.06,4"
              stroke="#71717a"
              stroke-width="2"
              fill="none"
              stroke-linecap="round"
              stroke-miterlimit="4"></path>
            <path
              d="M4,474.963C4,474.963,77.467,442.917,97.909,428.283C109.622,419.898,116.566,413.514,122.351,404.04C128.094,394.638,132.379,383.127,132.6,371.717C132.845,359.034,127.4,344.328,121.491,331.313C115.137,317.321,105.344,303.419,94.778,290.909C83.755,277.857,70.762,265.442,56.281,254.881C40.984,243.725,4.868,226.263,4.868,226.263"
              stroke="#71717a"
              stroke-width="2"
              fill="none"
              stroke-linecap="round"
              stroke-miterlimit="4"></path>
            <path
              d="M461.349,796C461.349,796,462.97,723.816,469.077,703.03C472.447,691.559,476.08,684.316,482.412,677.941C488.632,671.68,497.305,665.554,506.533,664.912C518.075,664.109,531.881,670.412,546.734,679.878C572.008,695.986,608.609,746.919,635.176,767.092C653.35,780.892,685.606,796,685.606,796"
              stroke="#71717a"
              stroke-width="2"
              fill="none"
              stroke-linecap="round"
              stroke-miterlimit="4"></path>
            <path
              d="M1204.285,4C1204.285,4,1222.151,21.993,1228.066,32.323C1233.763,42.273,1235.597,48.292,1239.559,64.646C1250.821,111.137,1279.065,255.959,1276.513,339.394C1274.357,409.85,1244.452,467.07,1238.234,533.333C1231.824,601.648,1249.877,704.659,1239.864,743.434C1235.656,759.729,1230.326,767.121,1221.649,775.758C1212.463,784.901,1185.329,796,1185.329,796"
              stroke="#71717a"
              stroke-width="2"
              fill="none"
              stroke-linecap="round"
              stroke-miterlimit="4"></path>
            <path
              d="M4,494.003C4,494.003,123.618,453.884,153.048,436.364C167.288,427.886,175.45,421.129,181.543,412.121C186.58,404.674,189.747,397.631,189.672,387.879C189.557,372.943,180.158,350.499,169.735,331.313C156.84,307.576,133.06,278.097,113.705,258.586C97.707,242.458,82.372,230.546,64.322,219.902C45.874,209.022,4,194.314,4,194.314"
              stroke="#71717a"
              stroke-width="2"
              fill="none"
              stroke-linecap="round"
              stroke-miterlimit="4"></path>
            <path
              d="M402.229,796C402.229,796,395.492,558.836,409.136,517.172C413.591,503.565,417.851,498.43,426.131,492.759C435.895,486.072,452.911,483.166,466.332,482.99C479.712,482.814,495.295,486.512,506.533,491.646C516.16,496.045,522.442,499.63,530.653,509.794C547.287,530.384,560.557,585.19,582.66,622.222C607.101,663.17,646.849,717.064,673.469,743.434C689.451,759.268,701.469,767.044,717.47,775.758C733.804,784.653,770.644,796,770.644,796"
              stroke="#71717a"
              stroke-width="2"
              fill="none"
              stroke-linecap="round"
              stroke-miterlimit="4"></path>
            <path
              d="M784.934,4C784.934,4,844.515,12.295,884.422,14.507C944.287,17.826,1060.035,6.717,1109.548,15.754C1135.116,20.421,1151.211,26.097,1165.829,36.652C1178.657,45.914,1188.052,57.523,1194.741,72.727C1203.181,91.91,1203.271,109.61,1205.984,145.455C1213.505,244.831,1214.987,638.624,1204.685,711.111C1202.174,728.787,1200.635,734,1195.389,743.434C1190.265,752.65,1184.301,760.041,1173.869,767.244C1157.638,778.45,1101.508,795.533,1101.508,795.533"
              stroke="#71717a"
              stroke-width="2"
              fill="none"
              stroke-linecap="round"
              stroke-miterlimit="4"></path>
            <path
              d="M4,31.116C4,31.116,70.599,29.406,104.523,25.082C139.904,20.571,212.025,4,212.025,4"
              stroke="#71717a"
              stroke-width="2"
              fill="none"
              stroke-linecap="round"
              stroke-miterlimit="4"></path>
            <path
              d="M4,511.434C4,511.434,164.218,470.775,209.045,465.834C230.528,463.466,243.094,462.88,257.286,465.799C269.377,468.285,279.195,471.524,289.447,479.64C303.613,490.853,318.587,513.177,329.264,533.333C340.727,554.972,349.028,580.239,354.678,606.061C360.759,633.86,362.706,664.353,363.111,694.949C363.543,727.537,356.219,796,356.219,796"
              stroke="#71717a"
              stroke-width="2"
              fill="none"
              stroke-linecap="round"
              stroke-miterlimit="4"></path>
            <path
              d="M678.119,4C678.119,4,771.555,25.975,828.141,33.311C900.473,42.689,1027.168,37.969,1077.387,49.513C1100.321,54.785,1113.191,59.785,1125.628,69.172C1136.404,77.304,1144.552,87.004,1149.749,99.951C1156.291,116.249,1156.949,136.3,1155.858,161.616C1154.081,202.854,1124.207,267.065,1125.632,323.232C1127.202,385.095,1164.519,463.314,1172.192,517.172C1177.546,554.746,1177.207,582.533,1176.795,614.141C1176.4,644.428,1176.636,679.65,1170.248,703.03C1165.704,719.66,1159.434,732.737,1150.233,743.434C1141.586,753.488,1130.504,759.831,1117.588,766.252C1101.848,774.076,1081.963,779.713,1061.307,784.444C1037.108,789.985,980.905,795.577,980.905,795.577"
              stroke="#71717a"
              stroke-width="2"
              fill="none"
              stroke-linecap="round"
              stroke-miterlimit="4"></path>
            <path
              d="M884.422,795.704C884.422,795.704,798.82,781.665,771.859,771.751C755.457,765.72,746.168,759.875,734.378,751.515C721.972,742.717,712.046,734.497,699.497,719.758C678.979,695.657,646.042,652.169,630.551,614.141C615.217,576.502,618.98,520.716,606.565,492.929C598.988,475.971,592.583,466.005,578.894,456.152C560.318,442.779,530.021,435.578,498.492,429.323C456.114,420.917,380.112,423.962,345.729,418.673C327.863,415.925,318.804,415.567,305.528,409.021C289.261,401.001,276.47,388.491,257.286,369.969C222.141,336.035,156.328,243.971,120.603,212.739C101.797,196.298,90.21,189.745,72.362,181.023C53.001,171.563,8.04,159.173,8.04,159.173"
              stroke="#71717a"
              stroke-width="2"
              fill="none"
              stroke-linecap="round"
              stroke-miterlimit="4"></path>
            <path
              d="M575.936,4C575.936,4,702.352,34.687,771.859,46.797C849.677,60.355,973.831,67.987,1021.106,79.367C1040.586,84.056,1050.259,87.317,1061.307,93.701C1070.564,99.05,1078.581,104.896,1084.122,113.131C1090.028,121.908,1093.787,133.952,1094.806,145.455C1095.922,158.05,1094.134,169.512,1089.011,185.859C1079.991,214.643,1042.451,272.351,1032.262,298.99C1027.021,312.695,1022.941,320.624,1023.468,331.313C1024.003,342.175,1028.272,350.982,1035.788,363.636C1049.609,386.908,1094.107,421.912,1111.837,452.525C1127.019,478.74,1134.835,506.739,1140.623,533.333C1145.961,557.866,1146.927,581.819,1146.916,606.061C1146.905,630.303,1145.155,658.376,1140.558,678.788C1137.036,694.428,1132.724,707.83,1125.628,718.961C1119.271,728.933,1112.419,736.126,1101.455,743.434C1085.89,753.81,1060.756,763.327,1037.186,769.428C1010.464,776.346,978.264,779.467,948.744,780.298C919.302,781.126,888.059,779.659,860.302,774.449C834.537,769.613,809.559,763.366,787.463,751.515C765.252,739.603,745.31,722.969,727.448,703.03C707.527,680.793,686.755,647.602,675.68,622.222C667.039,602.419,663.308,587.23,661.048,565.657C658.136,537.85,670.66,491.842,665.358,468.687C662.096,454.444,657.983,445.468,647.922,436.364C633.565,423.372,609.138,416.537,578.894,407.589C525.99,391.936,400.676,381.499,353.769,366.538C331.142,359.321,321.088,353.528,305.528,343.995C288.85,333.778,276.68,325.517,257.286,306.388C217.452,267.095,96.325,134.767,95.849,105.051C95.716,96.735,101.623,94.061,107.978,88.889C118.65,80.202,136.56,73.677,159.555,64.646C202.564,47.755,349.483,4,349.483,4"
              stroke="#71717a"
              stroke-width="2"
              fill="none"
              stroke-linecap="round"
              stroke-miterlimit="4"></path>
            <path
              d="M4,528.041C4,528.041,128.327,504.566,168.844,504.823C192.541,504.974,208.393,507.749,225.126,513.482C240.164,518.635,253.297,525.467,265.327,535.839C278.833,547.485,291.492,564.285,300.663,581.818C310.583,600.784,316.946,623.43,321.27,646.465C325.993,671.627,327.581,701.494,326.326,727.273C325.162,751.177,315.248,796,315.248,796"
              stroke="#71717a"
              stroke-width="2"
              fill="none"
              stroke-linecap="round"
              stroke-miterlimit="4"></path>
            <path
              d="M4,544.317C4,544.317,62.144,534.073,88.442,532.176C111.277,530.53,132.979,529.879,152.764,532.101C170.118,534.05,186.118,537.048,201.005,543.135C215.543,549.079,229.494,556.894,241.206,567.858C253.914,579.754,265.295,596.406,273.367,613.163C281.747,630.56,286.897,650.763,289.941,670.707C293.104,691.432,293.698,714.298,291.393,735.354C289.127,756.045,276.516,796,276.516,796"
              stroke="#71717a"
              stroke-width="2"
              fill="none"
              stroke-linecap="round"
              stroke-miterlimit="4"></path>
            <path
              d="M237.103,96.97C249.364,83.317,269.032,73.326,289.447,63.573C314.47,51.62,347.408,40.845,377.889,33.93C409.007,26.87,440.944,22.517,474.372,22.024C510.42,21.492,540.472,26.083,586.935,32.552C663.73,43.245,816.122,70.537,890.604,88.889C934.948,99.815,973.732,106.113,995.201,121.212C1008.249,130.389,1016.48,140.92,1019.501,153.535C1022.834,167.455,1017.065,186.453,1010.947,202.02C1004.322,218.879,993.361,232.534,979.578,250.505C959.73,276.383,912.529,318.16,899.339,339.394C893.184,349.303,888.363,356.29,889.73,363.636C891.139,371.214,898.337,376.752,908.543,384.025C931.505,400.39,1005.716,418.342,1037.186,440.364C1059.826,456.208,1075.452,474.596,1087.389,492.929C1097.53,508.505,1102.785,524.318,1107.425,541.414C1112.266,559.252,1114.695,579.093,1115.292,597.98C1115.887,616.803,1114.785,636.65,1111.044,654.545C1107.483,671.577,1104.023,688.922,1094.043,703.03C1083.027,718.605,1064.8,732.816,1045.226,742.246C1022.771,753.065,993.015,758.047,964.824,760.326C934.294,762.795,897.352,760.977,868.342,754.546C842.925,748.912,820.441,741.339,799.345,727.273C776.091,711.768,752.632,686.355,736.521,662.626C721.37,640.312,708.531,612.164,703.881,589.899C700.254,572.535,700.87,560.301,704.369,541.414C709.69,512.698,740.82,459.307,743.469,436.364C744.706,425.651,744.577,418.475,740.387,412.121C735.841,405.226,725.172,401.405,715.578,397.536C704.079,392.899,694.528,391.568,675.377,387.902C628.878,379.004,494.292,367.868,434.171,353.18C396.893,344.073,369.987,334.343,345.729,322.268C326.877,312.884,312.773,302.98,298.635,290.909C284.7,279.012,272.71,266.369,261.376,250.505C248.269,232.16,233.749,206.401,226.408,185.859C220.392,169.021,215.005,152.477,217.056,137.374C219.017,122.939,226.653,108.606,237.103,96.97"
              stroke="#71717a"
              stroke-width="2"
              fill="none"
              stroke-linecap="round"
              stroke-miterlimit="4"></path>
            <path
              d="M4,560.684C4,560.684,56.856,553.321,80.402,552.748C100.572,552.257,118.828,552.673,136.683,555.835C153.573,558.827,170.94,563.689,184.925,570.537C197.281,576.588,207.657,583.767,217.085,593.249C227.186,603.407,236.232,615.989,242.939,630.303C250.58,646.611,256.209,667.843,258.42,686.869C260.593,705.56,259.804,725.172,256.397,743.434C253.021,761.538,238.213,796,238.213,796"
              stroke="#71717a"
              stroke-width="2"
              fill="none"
              stroke-linecap="round"
              stroke-miterlimit="4"></path>
            <path
              d="M321.608,98.379C336.9,86.321,356.947,77.583,377.889,70.159C401.837,61.67,431.332,55.629,458.291,52.469C484.937,49.346,507.967,49.134,538.693,51.119C580.48,53.818,634.345,63.108,685.834,72.727C743.596,83.519,824.238,98.362,868.342,114.225C895.192,123.882,918.487,135.247,930.287,145.455C936.581,150.899,939.25,155.338,941.617,161.616C944.248,168.596,945.529,177.369,944.285,185.859C942.793,196.044,937.299,207.328,930.599,218.182C922.359,231.529,909.036,246.238,896.18,258.586C882.995,271.249,868.293,282.525,852.261,293.043C835.097,304.304,817.885,315.084,795.98,323.496C768.697,333.974,734.234,342.761,699.497,346.838C659.954,351.479,613.596,349.904,570.854,346.364C527.832,342.8,480.898,337.176,442.211,325.394C407.956,314.962,371.957,297.985,349.309,282.828C333.881,272.503,324.317,262.684,314.608,250.505C304.972,238.42,296.503,224.012,291.189,210.101C286.194,197.025,282.957,182.428,282.812,169.697C282.682,158.335,283.734,147.997,288.747,137.374C294.992,124.141,307.845,109.23,321.608,98.379"
              stroke="#71717a"
              stroke-width="2"
              fill="none"
              stroke-linecap="round"
              stroke-miterlimit="4"></path>
            <path
              d="M779.899,491.964C794.966,476.503,815.336,464.023,836.181,456.518C858.014,448.657,884.476,446.439,908.543,447.119C932.718,447.802,959.751,453.103,980.905,460.71C999.206,467.291,1015.247,475.519,1029.146,487.363C1043.449,499.552,1056.567,515.657,1065.123,533.333C1074.256,552.202,1079.707,576.329,1080.776,597.98C1081.834,619.428,1078.323,644.171,1071.735,662.626C1066.128,678.336,1058.123,692.207,1047.142,703.03C1035.979,714.032,1021.619,721.982,1005.025,727.837C984.727,734.998,956.461,738.67,932.663,738.485C909.441,738.304,884.677,734.392,863.919,727.273C844.804,720.717,827.461,711.022,812.06,699.001C796.481,686.84,782.276,671.218,771.109,654.545C759.763,637.605,748.685,616.557,744.762,597.98C741.303,581.603,741.081,565.732,745.713,549.495C751.154,530.421,764.787,507.472,779.899,491.964"
              stroke="#71717a"
              stroke-width="2"
              fill="none"
              stroke-linecap="round"
              stroke-miterlimit="4"></path>
            <path
              d="M4,577.586C4,577.586,92.132,573.212,120.603,578.023C137.794,580.928,148.612,585.365,160.804,591.841C172.669,598.145,183.852,606.028,192.965,616.067C202.61,626.693,210.997,640.442,216.5,654.545C222.261,669.308,225.541,686.824,226.085,703.03C226.625,719.148,224.391,736.048,219.837,751.515C215.264,767.044,198.644,796,198.644,796"
              stroke="#71717a"
              stroke-width="2"
              fill="none"
              stroke-linecap="round"
              stroke-miterlimit="4"></path>
            <path
              d="M369.849,120.023C384.056,108.107,406.221,97.821,426.131,90.803C446.383,83.663,467.697,80.112,490.452,77.831C515.642,75.307,541.215,75.517,570.854,77.772C608,80.598,655.001,88.248,695.667,96.97C735.509,105.515,782.234,115.893,812.49,129.293C833.86,138.758,854.124,148.712,863.602,161.616C870.65,171.213,872.892,184.046,872.204,193.939C871.594,202.713,867.206,209.972,861.985,218.182C855.269,228.742,845.935,239.87,832.831,250.505C814.08,265.723,783.187,284.183,755.779,295.305C728.062,306.552,698.291,313.223,667.337,317.352C634.186,321.774,597.51,322.366,562.814,319.538C527.826,316.685,489.291,310.531,458.291,300.129C431.247,291.054,405.415,279.885,385.93,263.924C368.035,249.266,351.156,226.634,343.976,210.101C339.003,198.651,338.553,187.753,338.846,177.778C339.101,169.091,340.316,161.826,344.169,153.535C349.194,142.722,358.257,129.745,369.849,120.023"
              stroke="#71717a"
              stroke-width="2"
              fill="none"
              stroke-linecap="round"
              stroke-miterlimit="4"></path>
            <path
              d="M804.492,533.333C814.136,521.092,829.565,510.384,844.221,503.237C858.887,496.085,875.623,492.067,892.462,490.447C910.365,488.725,931.845,490.309,948.744,494.244C963.578,497.699,976.912,502.997,988.945,510.782C1001.126,518.664,1013.03,529.518,1021.285,541.414C1029.479,553.222,1035.509,567.42,1038.404,581.818C1041.446,596.952,1041.386,615.333,1038.21,630.303C1035.236,644.32,1029.168,658.319,1021.106,669.22C1013.342,679.717,1002.862,688.66,991.25,694.949C978.945,701.613,963.509,705.551,948.744,707.238C933.315,709,916.021,708.031,900.503,704.632C884.999,701.236,869.395,695.1,855.673,686.869C841.705,678.489,828.155,666.86,817.565,654.545C807.241,642.541,797.695,628.159,792.614,614.141C787.904,601.146,785.034,586.955,786.829,573.737C788.694,559.999,795.42,544.847,804.492,533.333"
              stroke="#71717a"
              stroke-width="2"
              fill="none"
              stroke-linecap="round"
              stroke-miterlimit="4"></path>
            <path
              d="M4,595.601C4,595.601,79.995,594.811,104.523,600.124C119.523,603.374,128.795,607.661,139.448,614.141C150.266,620.722,160.91,629.134,168.844,639.478C177.257,650.447,184.162,665.24,187.792,678.788C191.29,691.843,192.101,705.835,190.802,719.192C189.481,732.775,185.482,746.916,179.694,759.596C173.78,772.553,155.418,796,155.418,796"
              stroke="#71717a"
              stroke-width="2"
              fill="none"
              stroke-linecap="round"
              stroke-miterlimit="4"></path>
            <path
              d="M426.131,134.129C438.158,125.223,454.938,118.169,470.714,113.131C487.034,107.921,504.309,105.374,522.613,103.797C542.829,102.056,564.367,102.419,586.935,104.188C612.31,106.178,641.327,110.706,667.337,116.375C692.532,121.867,719.727,128.754,740.698,137.374C757.75,144.383,774.651,151.038,784.945,161.616C793.68,170.592,801.736,182.623,801.528,193.939C801.294,206.717,790.096,222.62,778.89,234.343C765.608,248.239,744.519,259.644,723.618,268.674C699.984,278.886,670.247,286.178,643.216,290.052C616.638,293.861,589.481,294.408,562.814,292.049C535.877,289.665,506.266,284.288,482.412,275.637C461.356,268.001,440.785,258.456,426.131,245.296C412.851,233.372,400.075,216.91,396.406,202.02C393.176,188.912,395.991,173.104,401.224,161.616C406.22,150.648,415.696,141.856,426.131,134.129"
              stroke="#71717a"
              stroke-width="2"
              fill="none"
              stroke-linecap="round"
              stroke-miterlimit="4"></path>
            <path
              d="M860.302,556.698C866.531,551.101,874.274,545.669,884.422,543.133C898.895,539.516,924.818,538.572,940.704,544.4C955.158,549.703,969.738,563.3,976.926,573.737C982.243,581.458,984.054,589.809,984.855,597.98C985.639,605.975,985.841,614.21,981.916,622.222C976.49,633.3,962.277,649.581,948.744,655.065C934.745,660.737,914.068,659.723,898.802,654.545C882.948,649.169,864.482,633.462,855.708,622.222C849.578,614.369,846.707,606.219,845.507,597.98C844.352,590.046,845.467,580.806,848.161,573.737C850.656,567.19,854.885,561.565,860.302,556.698"
              stroke="#71717a"
              stroke-width="2"
              fill="none"
              stroke-linecap="round"
              stroke-miterlimit="4"></path>
            <path
              d="M4,615.7C4,615.7,40.113,614.581,56.281,616.761C70.68,618.702,84.309,621.72,96.482,626.927C107.942,631.828,119.31,638.784,127.601,646.465C134.94,653.263,140.487,660.719,144.724,669.607C149.363,679.34,152.653,691.916,153.352,703.03C154.03,713.829,152.536,724.871,149.22,735.354C145.707,746.455,139.523,757.777,132.156,767.677C124.411,778.084,103.353,796,103.353,796"
              stroke="#71717a"
              stroke-width="2"
              fill="none"
              stroke-linecap="round"
              stroke-miterlimit="4"></path>
            <path
              d="M474.918,161.616C482.451,154.928,492.757,148.122,506.533,143.827C528.087,137.106,564.924,133.177,594.975,135.67C627.16,138.34,673.277,151.71,693.492,161.616C703.817,166.675,709.903,170.919,714.589,177.778C719.155,184.461,722.835,194.218,721.602,202.02C720.275,210.424,712.884,219.248,705.195,226.263C695.852,234.785,681.111,241.788,667.337,247.107C652.582,252.805,635.916,256.589,619.095,258.593C601.175,260.727,580.734,260.854,562.814,258.783C545.993,256.839,529.167,253.099,514.573,247.31C501.105,241.967,487.093,234.746,477.964,226.263C470.364,219.199,463.865,210.514,461.555,202.02C459.451,194.282,460.589,184.734,463.108,177.778C465.396,171.464,469.323,166.585,474.918,161.616"
              stroke="#71717a"
              stroke-width="2"
              fill="none"
              stroke-linecap="round"
              stroke-miterlimit="4"></path>
            <path
              d="M4,640.044C4,640.044,58.067,645.754,75.076,654.545C86.968,660.692,95.325,669.921,100.953,678.788C105.723,686.304,108.207,694.289,108.801,703.03C109.475,712.954,107.05,725.752,103.005,735.354C99.151,744.498,93.368,752.148,85.693,759.596C76.412,768.603,62.296,777.742,49.497,783.838C37.035,789.774,10.026,796,10.026,796"
              stroke="#71717a"
              stroke-width="2"
              fill="none"
              stroke-linecap="round"
              stroke-miterlimit="4"></path>
            <path
              d="M4,677.479C4,677.479,25.304,682.01,32.161,687.954C38.584,693.521,44.608,703.261,44.77,711.111C44.935,719.058,39.089,728.903,32.844,735.354C25.975,742.449,4,750.723,4,750.723"
              stroke="#71717a"
              stroke-width="2"
              fill="none"
              stroke-linecap="round"
              stroke-miterlimit="4"></path>
          </svg>