<?xml version="1.0" encoding="UTF-8"?>
<svg id="Layer_2" data-name="Layer 2" xmlns="http://www.w3.org/2000/svg" viewBox="0 0 105.32 138.34">
  <defs>
    <style>
      .cls-1 {
        fill: #737438;
      }
    </style>
  </defs>
  <g id="Layer_1-2" data-name="Layer 1">
    <path class="cls-1" d="M76.9,5.63c-.2.16-.44.23-.68.24-.24,0-.48-.05-.69-.17h-.02s-.02-.03-.02-.03c-.02-.02-.04-.04-.06-.06-.09-.1-.13-.22-.17-.34-.03-.12-.05-.25-.05-.39,0-.28.02-.59.07-.9.1-.62.26-1.24.36-1.53.22-.66.57-1.42,1.16-1.94.31-.27.69-.46,1.13-.51.12-.01.26,0,.41,0,.16.02.32.04.47.09.1.03.19.06.28.13.1.07.18.14.25.22.1.11.17.24.21.37.04.13.04.26.03.39-.03.25-.12.49-.22.73-.06.15-.16.34-.29.57-.13.23-.28.49-.45.77-.34.55-.74,1.15-1.09,1.62-.23.31-.43.56-.6.71l-.04.03h0ZM98.22,34.88c.24-.29.41-.64.48-1.06.17-.97-.25-2.16-1.1-2.68-.87-.53-1.96-.36-2.92-.25-1.05.11-2.1.28-2.95.28-1.16,0-2.7-.25-4.22-.38-.76-.07-1.52-.11-2.23-.07-.71.03-1.38.14-1.96.38-.5.21-1.09.51-1.55.91-.33.29-.61.64-.71,1.06-.05.21-.04.43.02.66.07.22.19.45.38.66.04.05.08.09.13.14.32.32.69.52,1.09.65.59.2,1.24.24,1.86.28.62.03,1.22.06,1.72.19.38.1.74.26,1.11.44.37.17.75.35,1.18.46.97.23,1.94.14,2.88-.04.94-.18,1.86-.44,2.73-.56.62-.08,1.29-.08,1.97-.11.82-.04,1.6-.35,2.09-.94ZM101.78,31.3c-.28.07-.58.14-.83.27-.17.08-.23.12-.37.23-.05.04-.1.08-.14.13-.05.05-.06.06-.03.03-.03.03-.05.06-.07.1-.26.38-.31,1.07,0,1.44.12.14.29.22.46.29.39.15.81.2,1.23.16.44-.04.83-.22,1.25-.33.31-.08.61-.17.87-.27.27-.11.5-.23.7-.4.05-.04.09-.08.13-.13.16-.18.27-.43.32-.69.02-.13.02-.27,0-.4-.03-.14-.08-.27-.18-.39-.02-.02-.03-.03-.05-.05-.17-.16-.36-.27-.57-.33-.37-.11-.78-.1-1.2-.03-.39.06-.8.18-1.19.29-.11.03-.22.06-.33.09ZM94.94,7.8c-.11.29-.18.58-.19.87,0,.29.06.59.27.82.03.04.07.08.12.12.13.11.27.18.42.21.22.05.45.01.65-.07.2-.08.39-.21.57-.37.34-.3.65-.69.91-1.06.26-.37.46-.73.57-.95.11-.23.29-.58.39-.94.05-.19.08-.38.07-.57-.01-.19-.07-.39-.21-.56l-.02-.02h0s0,0,0,0h0c-.14-.15-.3-.26-.48-.31-.26-.08-.53-.04-.77.06-.24.1-.45.25-.65.42-.36.31-.66.69-.85.94-.23.31-.57.85-.79,1.42ZM76.22,22.05c.02-.97-.02-1.92.21-2.7.22-.77.65-1.38,1.03-2.06.38-.68.7-1.45.63-2.46-.04-.54-.19-1.08-.34-1.6-.15-.52-.3-1.03-.34-1.52-.05-.5.03-1.15.02-1.81,0-.33-.03-.66-.12-.98-.08-.32-.22-.63-.45-.89-.06-.07-.13-.14-.2-.2-.24-.21-.51-.35-.79-.41-.42-.09-.84-.02-1.24.14-.4.16-.78.42-1.12.72-.72.62-1.3,1.43-1.58,2.06-.43.98-.47,2.04-.46,3.07,0,1.03.04,2.04-.17,2.9-.07.3-.2.6-.33.92-.13.32-.26.67-.31,1.05-.06.48,0,.91.08,1.32.08.41.16.79.18,1.16.03.71-.22,1.57-.36,2.43-.07.43-.11.86-.05,1.28.05.42.21.83.52,1.19.2.23.46.43.78.61l.12-.23-.12.23c.53.29,1.1.35,1.63.25.53-.1,1.02-.36,1.43-.72.3-.26.56-.57.76-.91.51-.88.58-1.88.6-2.85ZM77.09,33.25c.17-.37.32-.73.44-1.05.06-.16.11-.31.15-.44.04-.13.06-.25.07-.36.03-.41-.1-.76-.33-1.02-.28-.32-.68-.51-1.08-.63-.4-.12-.82-.17-1.15-.21-.55-.05-1.31-.03-2.07.05-.76.08-1.51.22-2.03.45-.35.15-.67.36-.96.61-.79.69-1.36,1.67-1.92,2.65-.55.97-1.08,1.94-1.74,2.6-.16.16-.32.31-.49.46-1.13.98-2.51,1.74-3.89,2.49-1.38.75-2.76,1.49-3.86,2.45-.09.08-.18.16-.26.24-.43.41-.61.91-.77,1.38-.15.47-.28.89-.54,1.19-.05.05-.18.18-.35.33-.06.05-.11.1-.18.15-.36.31-.81.7-1.12,1.11-.16.21-.28.42-.34.65-.03.11-.04.24-.01.36.02.12.08.24.17.34.15.17.36.28.64.37.19.05.38.05.57.01.33-.07.65-.24.97-.45.48-.32.97-.75,1.43-1.14.45-.39.87-.74,1.17-.88,1.52-.75,3.24-1.29,4.96-1.9,1.72-.62,3.43-1.32,4.93-2.44l-.15-.21.15.21c.13-.1.26-.21.39-.32.33-.29.65-.6.96-.87.15-.13.3-.25.46-.36.76-.54,1.34-.81,1.86-1.05.52-.24.99-.46,1.47-.88.49-.43.98-1.05,1.58-2.09.18-.32.55-1.05.89-1.78ZM78.36,24.95c-.19.98,0,1.82.48,2.37.33.38.8.62,1.33.66.53.04,1.13-.1,1.74-.43.31-.17.59-.37.84-.59.67-.58,1.19-1.3,1.71-2.01.52-.71,1.03-1.4,1.65-1.94.1-.08.2-.16.3-.24.32-.23.7-.41,1.1-.59.4-.18.81-.36,1.18-.61.13-.09.25-.18.36-.28.48-.41.75-.86.98-1.3.24-.44.44-.86.8-1.3.69-.83,1.62-1.51,2.39-2.38.48-.55,1.17-1.52,1.6-2.55.22-.52.37-1.05.39-1.56.02-.51-.1-1.01-.44-1.41-.03-.04-.06-.07-.1-.1-.35-.34-.78-.53-1.22-.58-.44-.05-.9.02-1.31.18-.51.2-.98.51-1.41.89-.76.66-1.43,1.51-2.1,2.35-.67.84-1.33,1.67-2.02,2.28-.09.08-.18.15-.27.22-.41.32-.86.5-1.32.68-.46.18-.94.34-1.39.64-.15.1-.31.23-.48.37-.88.76-1.97,2.1-2.9,3.48-.46.69-.89,1.39-1.22,2.03-.33.64-.57,1.22-.66,1.7Z"/>
    <path class="cls-1" d="M40.83,114.25l.03-.04c.14-.18.38-.39.68-.63.45-.37,1.03-.79,1.57-1.16.27-.18.52-.35.75-.49.22-.14.41-.25.55-.31.24-.11.46-.21.72-.25.13-.02.26-.02.39.01.13.03.26.1.38.19.08.07.16.14.24.24.07.09.1.18.14.27.05.15.08.31.11.46.02.16.03.3.03.41-.03.45-.2.84-.45,1.15-.49.61-1.24.99-1.89,1.24-.28.11-.89.3-1.51.43-.31.06-.62.11-.9.11-.14,0-.27,0-.4-.03-.12-.03-.24-.07-.35-.15-.02-.02-.04-.04-.06-.06v-.02s-.03-.02-.03-.02c-.13-.2-.2-.44-.21-.68,0-.24.06-.48.21-.69h0ZM9.82,96.39c0,.68.03,1.35-.03,1.97-.08.88-.29,1.81-.43,2.76-.14.95-.19,1.92.09,2.88.12.43.32.8.51,1.16.19.36.37.71.49,1.09.15.49.2,1.09.27,1.71.06.62.14,1.26.36,1.84.15.39.37.76.7,1.06.05.05.1.09.15.13.22.18.45.29.68.35.23.06.45.05.66,0,.41-.12.75-.41,1.02-.76.38-.48.66-1.08.84-1.59.21-.59.29-1.26.29-1.98,0-.71-.07-1.47-.17-2.23-.2-1.51-.52-3.04-.57-4.2-.04-.85.08-1.91.15-2.96.06-.97.18-2.06-.39-2.91-.56-.83-1.77-1.19-2.73-.98-.42.09-.76.28-1.04.53-.57.52-.84,1.31-.84,2.13ZM14.15,90.22c.1-.39.2-.8.24-1.2.05-.42.04-.83-.09-1.2-.07-.21-.19-.4-.36-.56-.02-.02-.03-.03-.05-.05-.12-.09-.26-.15-.4-.17-.14-.02-.27-.01-.4.02-.26.06-.5.18-.67.35-.04.04-.09.09-.12.14-.16.2-.27.44-.37.71-.1.27-.17.57-.23.88-.09.43-.25.83-.27,1.26s.05.84.21,1.22c.07.17.16.33.31.45.38.3,1.07.22,1.44-.06.03-.02.06-.05.1-.08-.03.03-.02.03.02-.03.04-.05.08-.1.12-.15.11-.14.14-.2.22-.38.11-.26.17-.55.23-.84.02-.11.05-.23.07-.34ZM39.24,95.48c.25-.2.61-.52.9-.89.16-.21.3-.43.39-.67.09-.24.12-.51.02-.77-.06-.17-.18-.33-.34-.46h0s0,0,0,0h0s-.02-.02-.02-.02c-.17-.13-.37-.19-.57-.19-.19,0-.38.04-.57.09-.36.12-.7.31-.93.43-.22.12-.56.34-.93.61-.36.27-.74.6-1.02.96-.15.18-.27.38-.34.58-.08.2-.1.43-.04.65.04.15.12.29.23.41.04.04.08.08.12.11.24.19.54.25.83.23.29-.02.58-.11.87-.23.56-.24,1.08-.61,1.38-.85ZM21.65,116.41c-.33.21-.63.49-.88.8-.34.43-.58.93-.65,1.46-.08.53,0,1.1.32,1.62l.22-.13-.22.13c.19.32.41.57.64.76.37.29.79.43,1.21.46.42.04.85-.02,1.28-.11.85-.18,1.7-.47,2.41-.47.38,0,.76.07,1.17.13.41.06.85.1,1.32.02.38-.07.72-.21,1.04-.35.32-.14.61-.29.91-.37.85-.25,1.86-.26,2.89-.3,1.03-.05,2.09-.13,3.05-.6.62-.31,1.4-.92,1.99-1.67.28-.36.52-.75.67-1.16.15-.4.2-.83.09-1.25-.07-.28-.22-.54-.44-.77-.07-.07-.14-.13-.21-.19-.28-.22-.59-.34-.91-.41-.32-.07-.66-.08-.98-.07-.66.02-1.31.12-1.81.1-.49-.02-1-.15-1.53-.27-.53-.13-1.07-.25-1.61-.27-1.02-.03-1.77.33-2.43.74-.67.41-1.26.87-2.02,1.12-.78.26-1.73.27-2.69.33-.96.06-1.96.18-2.82.73ZM11.49,116.27c-1.02.64-1.62,1.16-2.02,1.67-.4.5-.59.98-.81,1.51-.22.53-.46,1.12-.97,1.91-.1.16-.22.32-.34.48-.26.33-.55.65-.83,1-.1.13-.2.27-.3.41l.21.15-.21-.14c-1.05,1.55-1.67,3.29-2.21,5.03-.54,1.74-1,3.48-1.68,5.04-.13.3-.46.74-.83,1.21-.37.47-.78.98-1.08,1.48-.2.33-.35.66-.41.99-.03.19-.02.38.04.56.1.28.22.49.4.63.1.08.22.13.35.15.12.02.24,0,.36-.03.23-.07.43-.2.63-.37.39-.33.77-.79,1.06-1.17.05-.06.1-.12.14-.18.14-.18.26-.32.31-.37.29-.27.71-.42,1.16-.59.46-.17.96-.38,1.34-.83.08-.09.15-.18.23-.28.9-1.14,1.58-2.55,2.27-3.97.69-1.41,1.39-2.83,2.31-4,.14-.18.29-.35.44-.51.63-.69,1.57-1.27,2.52-1.86.95-.6,1.9-1.21,2.56-2.03.24-.3.43-.62.56-.98.2-.54.31-1.29.36-2.05.05-.76.03-1.53-.05-2.07-.05-.33-.12-.75-.26-1.14-.14-.4-.34-.79-.68-1.05-.26-.21-.62-.33-1.03-.28-.11.01-.22.04-.35.09-.13.04-.28.1-.43.17-.31.13-.67.31-1.03.49-.72.37-1.43.77-1.74.97ZM23.14,112.93c.63-.36,1.31-.81,1.98-1.31,1.34-.99,2.63-2.14,3.35-3.05.14-.17.26-.34.35-.5.27-.46.42-.95.57-1.42.16-.47.32-.92.62-1.35.07-.1.14-.19.21-.28.57-.73,1.37-1.42,2.18-2.12.81-.7,1.64-1.42,2.26-2.2.36-.45.65-.93.82-1.45.14-.42.2-.88.12-1.32-.07-.44-.27-.86-.63-1.2-.03-.03-.07-.06-.11-.09-.41-.33-.92-.42-1.43-.38-.51.04-1.03.22-1.54.46-1.01.48-1.95,1.21-2.48,1.72-.84.81-1.47,1.77-2.27,2.49-.42.38-.83.6-1.26.86-.42.25-.86.54-1.25,1.04-.09.11-.18.24-.26.37-.23.38-.39.8-.55,1.21-.16.41-.32.8-.54,1.13-.07.11-.15.21-.23.31-.51.65-1.18,1.19-1.86,1.73-.68.55-1.38,1.1-1.93,1.79-.21.27-.4.55-.55.87-.31.62-.42,1.22-.35,1.75.07.53.32.99.72,1.3.57.45,1.42.6,2.39.37.48-.11,1.05-.38,1.67-.73Z"/>
  </g>
</svg>