  <svg
                  xmlns="http://www.w3.org/2000/svg"
                  class="size-5 shrink-0"
                  viewBox="0 0 242.45 196.22">
                  <path
                    class="cls-1"
                    d="M242.44,12.11c-.08-.58-.17-1.17-.28-1.74-.16-.56-.35-1.11-.55-1.66-.23-.53-.52-1.03-.79-1.53-2.1-3.32-5.28-5.45-8.71-6.49-1.72-.56-3.55-.74-5.37-.68-.46.03-.92.05-1.37.11l-1.36.26c-.46.07-.89.26-1.34.38-.44.15-.88.27-1.34.54-.39.2-.78.42-1.17.65-.35.22-.59.42-.9.64-.57.41-1.14.81-1.68,1.2-3.6,2.47-6.54,5.52-9.01,8.58-1.79,2.23-3.68,4.05-5.66,5.81-2.44,2.16-4.77,4.29-6.86,6.83-1.21,1.48-2.64,3.06-4.06,4.25-3.52,2.92-6.13,6.62-9.34,9.79-.15.15-.15.47-.26.72-1.67,4.09-4.86,8.07-8.45,11.11-3.51,2.91-6.5,6.42-9.78,9.53-2.97,2.79-5.64,6.22-8.41,9.41-3.4,4.07-6.82,8.15-10.08,12.34-1.96,2.48-3.89,4.99-5.77,7.53l-5.68,7.6c-1.5,2.02-2.97,4.05-4.5,6.04-1.5,2.01-3.07,3.96-4.78,5.81-1.61,1.71-3.24,3.8-4.45,5.83-3.07,5.09-6.4,9.81-10.13,14.33-2.62,3.28-5.07,6.75-7.23,10.44-1.1,1.86-2.28,3.69-3.48,5.49-1.76,2.73-3.61,5.46-4.84,8.36-.54,1.24-.99,2.4-1.75,3.59-1.72,2.75-3.52,5.46-5.12,8.29-1.56,2.76-3.13,2.17-5.57.87-6.2-3.3-12.64-6.28-18.31-10.47-5.47-4.05-9.89-8.66-16.28-11.49-1.51-.67-3.13-1.68-4.53-2.66-2.43-1.67-4.95-2.94-7.58-4.2-2.14-1.03-4.21-2.13-6.3-3.61-2.88-2.03-6.15-3.93-9.86-5.17-.57-.2-1.15-.41-1.74-.62-.31-.11-.57-.22-.93-.33-.39-.1-.78-.19-1.16-.27-.46-.12-.87-.12-1.28-.13-.42,0-.83-.06-1.24,0l-1.24.11c-.41.06-.81.16-1.21.24-1.58.39-3.11,1-4.45,1.9-2.7,1.74-4.91,4.35-5.9,7.72-.11.5-.24,1-.3,1.51-.03.52-.07,1.04-.07,1.56.05.52.11,1.05.19,1.57.06.25.13.5.21.76l.27.88c.49,1.26,1.56,2.39,2.26,3.04l.57.52.57.46c.38.32.76.59,1.13.88,1.51,1.11,3.02,2.09,4.51,3.09.53.35,1.17.66,1.58,1.02,2.85,2.54,6.28,4.18,9.7,5.81,1.02.49,2.03,1.1,3.01,1.68,11.77,7.11,24.62,11.91,36.13,19.71,8.29,5.62,29.98,23.83,40.04,13.03,2.78-2.99,4.91-7.36,7.2-10.77,2.76-4.1,5.47-8.24,8.26-12.31.6-.87,1.29-1.66,1.94-2.49.65-.84,1.35-1.63,1.96-2.5,4.14-5.95,8.33-11.86,12.24-17.95,1.53-2.36,3.11-4.69,4.14-7.19,1.52-3.65,4.19-6.77,6.81-9.86,1.96-2.26,4.05-4.41,5.85-6.8,1.63-2.14,3.27-4.28,4.91-6.43,1.61-2.16,3.14-4.38,4.55-6.66.82-1.35,2-2.66,3.04-3.97,2.85-3.63,5.85-7.14,8.71-10.76,2.48-3.04,4.82-6.22,7.36-9.2,2.71-3.1,5.44-6.1,7.82-9.47,1.99-2.81,4.11-5.6,6.21-8.37.41-.54.89-1.04,1.31-1.57,2.56-3.18,5.55-5.72,8.37-8.52,1.03-1.03,2.08-2.03,3.15-3,1.08-.97,2.14-1.92,3.2-2.72,5.22-3.95,10.43-8.33,15.18-13.42.87-.93,1.77-1.9,2.72-2.73,3.18-2.8,6.36-5.61,8.65-9.21.33-.52.92-1.04,1.38-1.58,1.3-1.52,2.62-3.04,3.9-4.7.32-.42.64-.83.95-1.29l.47-.67.46-.74c.55-.91,1.36-2.46,1.49-3.96l.02-1.03c0-.29,0-.58,0-.88Z" />
                </svg>